<?xml version="1.0" encoding="utf-8"?>
<!-- Generator: Adobe Illustrator 27.0.1, SVG Export Plug-In . SVG Version: 6.00 Build 0)  -->
<svg version="1.1" id="Layer_1" xmlns="http://www.w3.org/2000/svg" xmlns:xlink="http://www.w3.org/1999/xlink" x="0px" y="0px"
	 viewBox="0 0 500 500" style="enable-background:new 0 0 500 500;" xml:space="preserve">
<style type="text/css">
	.st0{fill:#E9E7DA;}
</style>
<path class="st0" d="M94.84,246.95c3.96,15.7,9.47,22.93,23.7,24.27c10.03,0.95,18.27,5.55,25.28,13.27
	c-24.95,21.41-49.75,42.68-75.14,64.47c1.61,0.6,2.17,0.91,2.76,1.02c12.62,2.27,25.21,4.82,37.89,6.62
	c5.09,0.73,6.5,2.77,6.52,7.61C115.9,380.78,116,483.42,116.1,500h2.98c0-18.39,0-122.73,0-141.07c1.23,0.18,2.44,0.13,3.46,0.54
	c4.84,1.95,8.5,0.06,12.22-3.01c14-11.56,28.19-22.89,42.23-34.4c7.55-6.19,14.94-12.57,22.5-18.95c4.75,4.36,8.69,8.46,13.14,11.91
	c3.28,2.54,4.29,5.38,4.28,9.37c-0.1,29.85-0.06,145.76,0.07,175.61h2.47c0-31.19,0-147.95,0-178.22
	c8.31,3.82,16.48,10.04,25.16,10.85c8.62,0.81,17.76-3.82,27.18-6.18c2.74,4.31,5.82,9.64,9.38,14.64c3.4,4.78,6.85,5.48,12.22,3.17
	c2.63-1.13,5.2-2.41,8.05-3.74c0.11,1.29,0.2,1.95,0.21,2.61c0.31,23.6,0.62,133.27,0.92,156.88h2.64
	c-0.18-16.61-0.35-119.29-0.53-135.9c-0.08-7.33-0.51-14.67-0.19-21.98c0.11-2.42,1.45-5.53,3.29-7
	c18.2-14.57,36.7-28.76,54.92-43.3c3.39-2.71,6.6-2.33,10.26-1.77c12.79,1.97,13.06,1.93,13.21,14.72
	c0.41,36.39,0.76,158.85,1.11,195.24h2.3c-0.45-37.06-0.9-160.19-1.35-197.26c-0.04-3.11,0-6.21,0-9.57c1.56,0.1,2.54,0.08,3.5,0.25
	c13.12,2.36,26.22,4.81,39.35,7.08c4.5,0.78,9.26,2.96,13.47-2.26c0.18,2.6,0.38,4.24,0.4,5.88c0.29,36.6,0.57,159.27,0.84,195.88
	h2.41c-0.42-38.25-0.81-162.57-1.15-200.83c-0.03-2.98,1.28-6.68,3.26-8.84c8.32-9.08,17.08-17.78,25.82-26.47
	c3.13-3.11,6.66-5.81,10-8.7c-0.36-0.54-0.72-1.08-1.08-1.62c-2.58-0.32-5.16-0.61-7.73-0.95c-28.39-3.85-56.78-7.77-85.19-11.47
	c-3.78-0.49-4.53-2.28-4.54-5.57c-0.13-31.66-0.4-63.32-0.41-94.98c0-1.99,1.39-4.4,2.86-5.91c4.22-4.35,8.82-8.34,13.85-13.01
	c-14.99-4.72-29.11-9.07-43.15-13.66c-3.71-1.21-6.23-0.22-8.87,2.38c-4.82,4.75-9.95,9.19-15.3,14.09
	c-5.79-8.72-12.06-16.7-12.11-27.33c-0.14-26.48-0.09-52.96-0.12-79.44c-0.01-5.92,0-11.85,0-17.69c-4.35,0-8.73,0-12.41,0
	c-0.63,11.47-0.56,22.49-1.96,33.31c-2.69,20.81-6.51,41.53-4.32,62.63c1.18,11.41,4.46,22.24,12.4,31.02
	c8.94,9.88,18.14,19.52,26.91,29.54c2.43,2.77,4.68,6.33,5.41,9.86c4.39,21.18,8.35,42.45,12.36,63.7c0.35,1.86,0.05,3.84,0.05,5.9
	c-1.95,0-3.29,0.18-4.57-0.03c-22.38-3.52-44.74-7.11-67.12-10.58c-2.23-0.35-4.98-0.79-6.76,0.16c-4.68,2.49-9.22,5.41-13.28,8.8
	c-1.96,1.64-3.53,4.63-3.85,7.19c-1.07,8.41-1.27,16.93-2.23,25.36c-0.56,4.96,1.37,6.68,6.08,7.29c9.68,1.25,19.29,3.04,29.62,4.72
	c-1.32,1.61-2.26,2.89-3.34,4.06c-7.78,8.46-15.57,16.91-23.38,25.35c-7.18,7.76-16.8,9.74-26.62,10.5
	c-2.97,0.23-6.86-1.28-9.09-3.34c-8.03-7.43-15.92-15.1-23.02-23.4c-2.32-2.71-3.47-7.9-2.76-11.48
	c3.65-18.28,8.1-36.39,12.21-54.58c0.35-1.53,0.96-3.68,0.25-4.65c-2.39-3.23-5.33-6.04-8.01-8.96c-2.34,4.32-3.82,8.33-6.34,11.53
	c-15.38,19.53-34.8,34.8-53.73,50.59c-2.22,1.85-3.75,1.31-5.43-0.67c-3.44-4.07-3.85-8.96,0.16-14.77
	c9.63-13.96,19.61-27.69,29.56-41.44c3.94-5.45,8.17-10.69,12.27-16.02c-4.85-0.48-9.34-3.52-13.08,0.81
	c-6.96,8.07-14.12,15.98-20.87,24.23c-9.12,11.14-21.68,20.27-22.46,36.94c-1.69-4.02-2.89-7.9-3.17-11.85
	c-1.58-22.52,9.1-40.65,21.96-58.94c-4.41,0-8.14-0.16-11.85,0.1c-1.08,0.07-2.65,1.1-3.04,2.07
	c-6.13,15.06-12.39,30.09-17.93,45.37c-1.75,4.81-1.48,10.36-2.13,15.54c-12.3-1.01-16.43-5.57-16.03-17.19
	c0.68-19.78,5.94-38.45,14.13-56.32c1.33-2.91,3.51-6.02,6.15-7.66c17.28-10.69,30.24-26.04,44.15-40.35
	c10.44-10.74,21.15-21.22,28.7-34.46c4.46-7.83,6.24-15.58,3.52-24.36c-1.87-6.04-3.51-12.2-4.54-18.43
	c-2.8-16.91-5.18-33.89-7.85-50.82c-0.22-1.41-1.26-3.8-2.01-3.84c-6.5-0.31-13.02-0.18-18.65-0.18
	c4.05,17.05,8.38,33.27,11.62,49.71c1.63,8.24,0.09,17.18,2.14,25.25c2.84,11.17-0.05,20.04-7.15,28.09
	c-10.68,12.11-21.76,23.88-32.34,36.07c-6.32,7.27-13.98,12.3-22.84,15.62c-6.06,2.27-10.21,6.48-12.39,12.28
	c-3.22,8.54-6.06,17.25-8.63,26.02c-0.93,3.17-2,4.35-5.42,3.93c-13.89-1.71-27.83-2.96-41.69-4.81c-4.12-0.55-6.81,0.28-9.5,3.44
	c-8.64,10.14-17.57,20.05-26.36,30.07c-0.7,0.79-1.19,1.76-1.98,2.95c1.81,0.33,3.1,0.59,4.4,0.79c23.55,3.61,47.1,7.19,70.63,10.87
	C91.5,242.95,93.81,242.89,94.84,246.95z M369.34,153.15c5.1-3.59,9.49-8.19,15.22-13.25c0,34.06,0,66.64,0,99.53
	c-1.63-0.18-3.08-0.41-4.54-0.48c-4.07-0.19-5.63-1.88-6.28-6.32c-3.08-21.09-6.6-42.12-10.33-63.11
	C362.19,162.62,363.26,157.43,369.34,153.15z M301.48,291.19c1.05-1.29,2.55-2.28,3.35-3.68c4.13-7.32,10.07-8.11,17.67-6.08
	c7.83,2.09,15.93,3.15,24.85,4.84c-6.59,13.5-17.53,21.62-29.04,30.36c-6.16-13.07-15.93-15.19-28.27-9.45
	c-0.15-0.39-0.3-0.79-0.45-1.18C293.55,301.05,297.49,296.1,301.48,291.19z M298.76,317.01c1.81,0.76,3.64,1.7,5.14,2.94
	c4.21,3.47,4.17,5.44-0.33,8.31c-3.33,2.12-6.8,4.18-10.47,5.57c-5.51,2.07-7.94,0.78-9.99-4.66c-1.04-2.75-1.72-5.63-2.72-8.99
	C286.91,318,292.29,314.28,298.76,317.01z"/>
</svg>
