<?xml version="1.0" encoding="utf-8"?>
<!-- Generator: Adobe Illustrator 27.8.1, SVG Export Plug-In . SVG Version: 6.00 Build 0)  -->
<svg version="1.1" id="Layer_1" xmlns="http://www.w3.org/2000/svg" xmlns:xlink="http://www.w3.org/1999/xlink" x="0px" y="0px"
	 viewBox="0 0 500 500" style="enable-background:new 0 0 500 500;" xml:space="preserve">
<style type="text/css">
	.st0{fill:#E0E0DF;}
	.st1{fill:#787777;}
</style>
<g>
	<path class="st0" d="M37.4,493.8H485c4.3,0,7.8-3.5,7.8-7.8V161.3c0-4.3-3.5-7.8-7.8-7.8H353.9c-5.4,0-9.2-5.4-7.3-10.5l32.8-87.6
		c2.8-7.4-5.9-13.7-12.1-8.9L231.4,151.9c-1.4,1.1-3,1.6-4.8,1.6H37.4c-4.3,0-7.8,3.5-7.8,7.8V486C29.6,490.3,33.1,493.8,37.4,493.8
		z"/>
	<path class="st1" d="M370.8,6.2c1.5,0,2.6,0.8,3,1.1c2.1,1.6,2,3.6,1.9,4.4c-0.1,0.6-0.4,1.7-1.5,2.6c-0.1,0.2-0.1,0.4-0.2,0.7
		c-0.2,0.4-0.3,0.8-0.5,1c0.1,0.7,0,1.6-0.3,2.5c-0.3,0.7-0.6,1.3-1,1.7c0,0.5-0.1,1-0.4,1.6c-0.2,0.6-0.3,0.8-0.5,1.1
		c-0.1,0.1-0.1,0.3-0.2,0.6c-0.1,0.2-0.1,0.3-0.1,0.4c-0.1,0.4-0.2,0.7-0.4,1.3c-0.3,0.9-0.8,1.5-1.2,1.9c-0.1,0.4-0.2,0.8-0.4,1.3
		c-0.1,0.3-0.2,0.5-0.3,0.7c0.2,0.8,0.2,1.8-0.2,2.9c-0.4,1-0.9,1.6-1.2,2c-0.2,0.5-0.5,0.9-0.7,1.2c-0.1,0.4-0.3,0.7-0.4,1
		c0.1,0.7,0.1,1.6-0.3,2.5c-0.3,0.7-0.5,1.2-0.8,1.5c0,0.5-0.1,1.1-0.4,1.9c-0.3,0.7-0.6,1.3-1,1.7c0,0.5-0.2,1-0.4,1.6
		c-0.3,0.9-0.9,1.6-1.4,2.1c0,0.2-0.1,0.4-0.2,0.7c0,0.5,0,1.4-0.4,2.3c-0.3,0.7-0.5,1.2-0.7,1.5l-0.1,0.1c-0.4,1-0.9,1.7-1.3,2.1
		c-0.2,0.5-0.5,0.9-0.8,1.2c-0.1,0.4-0.2,0.9-0.4,1.6c-0.1,0.1-0.1,0.2-0.1,0.3c-0.1,0.4-0.2,0.8-0.4,1.4c-0.2,0.7-0.5,1.1-0.7,1.4
		c0,0.6-0.1,1.2-0.4,2l0,0.1c-0.1,0.5-0.2,0.9-0.5,1.7c-0.3,0.8-0.6,1.3-0.9,1.7c-0.1,0.3-0.2,0.5-0.2,0.6c0,0,0,0.1,0,0.1
		c0.1,0.7,0.1,1.7-0.3,2.9c-0.1,0.2-0.1,0.4-0.2,0.5c-0.1,0.3-0.2,0.6-0.4,1.3c-0.3,0.7-0.7,1.3-1.1,1.8c0,0.5-0.1,1-0.4,1.6
		c-0.2,0.6-0.5,1-0.8,1.4c0,0.6-0.1,1.3-0.3,2c-0.4,1-0.9,1.6-1.4,2.1c-0.1,0.3-0.2,0.7-0.3,1.2c-0.3,0.7-0.6,1.3-1,1.7
		c0,0.4-0.1,0.9-0.3,1.4c0,0.6-0.1,1.2-0.4,2c-0.2,0.7-0.5,1.1-0.6,1.4c0,0.1-0.1,0.1-0.1,0.3c-0.2,0.6-0.4,1-0.6,1.3
		c0,0.6-0.1,1.4-0.4,2.2c-0.2,0.6-0.3,0.9-0.5,1.1c-0.1,0.1-0.1,0.3-0.2,0.5c-0.3,0.9-0.9,1.6-1.6,2.2c0.1,0.7,0.2,1.7-0.3,2.9
		c-0.2,0.7-0.5,1.2-0.8,1.5c0,0.5-0.1,1.2-0.4,1.9c-0.3,0.9-0.7,1.5-1.1,1.9c-0.1,0.4-0.2,0.9-0.4,1.4c-0.4,0.9-0.9,1.6-1.4,2.1
		c0.3,1.1,0.3,2.1-0.1,3.1c-0.4,1.1-1.1,1.9-1.7,2.3c-0.1,0.2-0.1,0.4-0.2,0.7c-0.1,0.6-0.2,1.1-0.4,1.9c-0.3,0.7-0.7,1.3-1,1.7
		c0,0.4-0.1,0.8-0.2,1.2c0,0.6-0.1,1.3-0.4,2.2c-0.1,0.3-0.2,0.5-0.2,0.7c-0.1,0.3-0.2,0.5-0.4,1c-0.1,0.3-0.2,0.4-0.2,0.6
		c-0.1,0.3-0.2,0.6-0.4,1.1c-0.4,1-0.9,1.7-1.4,2.2c-0.3,0.6-0.6,1-0.9,1.3c-0.1,0.3-0.3,0.6-0.4,0.8c-0.1,0.1-0.1,0.2-0.2,0.4
		c-0.1,0.3-0.2,0.6-0.3,0.8c0.5,0,0.8,0,1.1,0.1c0.1,0,0.2,0,0.5,0c0.8,0,1.3,0.1,1.8,0.2c0.5,0,0.7,0,0.9,0c0.2,0,0.5,0,0.9,0
		c0.5-0.1,1.1-0.3,2-0.3c0.7,0,1.3,0.1,1.9,0.3c0.5-0.2,1.1-0.3,1.8-0.3c1.1,0,2,0.3,2.7,0.7c0.1,0,0.2,0,0.3,0
		c0.5-0.2,1.4-0.5,2.5-0.5c0.8,0,1.5,0.2,2,0.4c0.5-0.1,1-0.2,1.7-0.2c0.8,0,1.4,0.1,1.9,0.3c0.5-0.1,1-0.2,1.7-0.2
		c0.5,0,0.9,0.1,1.3,0.2c0.6-0.3,1.4-0.5,2.3-0.5c0.6,0,1.1,0.1,1.5,0.2c0.7-0.3,1.4-0.5,2.1-0.5c0.9,0,1.5,0.1,2,0.3
		c0.5,0,1,0.1,1.4,0.2c0.6-0.2,1.3-0.4,2.1-0.4c0.8,0,1.3,0.1,1.7,0.2l0.1,0c1.4,0,2.4,0.5,3,0.9c0.4-0.2,1-0.4,1.6-0.5
		c0.6-0.3,1.5-0.6,2.6-0.6c1.1,0,2.1,0.3,2.9,0.9c0.2,0,0.5,0,0.7,0c0,0,0,0,0,0c0.5-0.1,1-0.2,1.8-0.2c0.5,0,0.9,0.1,1.3,0.2
		c0.5-0.3,1.2-0.5,2-0.5c0.6-0.2,1.2-0.3,2.2-0.3c0.8,0,1.5,0.2,2.1,0.4c0.4-0.1,1-0.2,1.6-0.2c0.6,0,0.9,0,1.3,0.1
		c0.1,0,0.3,0,0.6,0l0.2,0c0.4-0.1,0.9-0.1,1.7-0.1c1.1,0,1.9,0.3,2.5,0.5c0.2,0,0.4,0.1,0.6,0.1c0.6-0.3,1.4-0.5,2.4-0.5
		c0.9,0,1.5,0.1,1.9,0.2c1.3,0,2.2,0.4,2.9,0.9c0.6-0.3,1.5-0.6,2.6-0.6c1.1,0,1.9,0.3,2.4,0.5c0.5,0,0.9,0.1,1.2,0.2
		c0.4,0,0.6,0,0.8,0c0.2,0,0.4,0,0.8,0c0.5-0.2,1-0.3,1.7-0.3c0.4-0.2,0.9-0.3,1.4-0.3c0.6-0.3,1.5-0.6,2.6-0.6c1,0,1.9,0.3,2.5,0.6
		c0.7-0.1,1.8-0.1,2.6,0.1c0.6-0.3,1.4-0.5,2.3-0.5c0.8,0,1.5,0.1,2,0.3c0.4-0.1,0.9-0.2,1.7-0.2c0.6,0,1.1,0.1,1.6,0.2
		c0.6-0.3,1.3-0.4,2.1-0.4c0.9,0,1.6,0.2,2.1,0.3c0.4,0,0.8,0.1,1.1,0.2c0.6-0.3,1.3-0.5,2.3-0.5c1.4,0,2.4,0.5,3,0.9
		c0,0,0.1,0,0.1,0c0.6-0.3,1.4-0.6,2.4-0.6c0.5-0.1,1-0.2,1.9-0.2c0.8,0,1.4,0.1,1.9,0.2c0,0,0,0,0.1,0l0.1,0
		c0.4-0.1,0.9-0.1,1.6-0.1c0.4,0,0.6,0,0.8,0c0.3,0,0.5,0,1,0c0.8,0,1.5,0.2,2,0.4c0.4-0.1,0.9-0.2,1.5-0.2c0.5-0.1,1.1-0.3,1.9-0.3
		l0.1,0c0.5-0.1,1-0.2,1.7-0.2c0.7,0,1.3,0.1,1.8,0.3c0.5-0.2,1.1-0.3,1.9-0.3c1.4,0,2.4,0.5,3.1,1c0.2,0,0.4,0.1,0.6,0.1l0,0
		c0.1,0,0.2,0,0.4-0.1c0.7-0.5,1.7-1,3.2-1c0.8,0,1.4,0.1,1.9,0.4c0.5-0.1,1-0.3,1.6-0.3l0.1,0c0.8-0.2,3.2-0.6,5.3,1.4
		c2,2,1.6,4.4,1.5,5.2c0,0,0,0.1,0,0.2c0,0.8-0.2,1.6-0.5,2.1c0.1,0.4,0.2,0.9,0.2,1.5c0,0.7-0.1,1.2-0.1,1.6l0,0.1c0,0,0,0.1,0,0.1
		c0,0.1,0,0.1,0,0.1l0,0.1c0.1,0.4,0.1,0.8,0.1,1.4c0.2,0.5,0.3,1.2,0.3,2.1c0,0.9-0.1,1.5-0.3,2c0,0.8-0.1,1.3-0.2,1.7
		c0,0.9-0.2,1.6-0.4,2.1c0.1,0.4,0.2,0.9,0.2,1.6c0,1-0.2,1.7-0.4,2.2c0,0.3,0,0.5,0,0.7c0,0.1,0,0.3,0,0.5c0.1,0.4,0.2,0.8,0.3,1.4
		c0.3,0.6,0.6,1.4,0.6,2.4c0.1,0.5,0.2,1.1,0.2,1.9c0,1.2-0.4,2.1-0.8,2.8c0.3,0.6,0.7,1.5,0.7,2.7c0,0.8-0.1,1.3-0.2,1.7l0,0.1
		c0,0.3,0,0.5,0,0.7c0,0.3,0,0.6,0,1.2c0,0.9-0.1,1.5-0.3,2c0,0.5-0.1,1-0.2,1.4c0.2,0.5,0.4,1.2,0.4,2c0,0.8-0.1,1.4-0.3,1.9
		c0.1,0.5,0.2,1.1,0.2,1.8c0,0.9-0.1,1.5-0.3,2c0,0.6,0,0.9-0.1,1.2c0,0.1,0,0.2,0,0.3c0.1,0.5,0.3,1.1,0.3,2c0,0.4,0,0.6,0,0.7
		c0,0.3,0,0.5,0,1.1c0,1.1-0.3,1.9-0.6,2.5c0,0.2,0,0.3-0.1,0.5c0.3,0.6,0.5,1.4,0.5,2.4c0,1.1-0.2,1.8-0.5,2.4c0,0.2,0,0.4,0,0.5
		c0,0.1,0,0.2,0,0.4c0.2,0.4,0.3,0.9,0.4,1.5c0.3,0.7,0.6,1.5,0.6,2.6c0,1.1-0.3,2-0.7,2.7c0,0.3,0.1,0.6,0.1,1
		c0,0.9-0.2,1.6-0.4,2.2c0,0.1,0,0.2,0,0.3c0,0,0,0.1,0,0.1c0.4,0.7,0.8,1.6,0.8,2.9c0,0.7-0.1,1.3-0.3,1.9c0.2,0.5,0.3,1.1,0.3,1.8
		c0,1.3-0.4,2.3-0.8,2.9c0,0.2-0.1,0.4-0.1,0.6c0.1,0.2,0.1,0.5,0.2,0.8c0.4,0.7,0.9,1.7,0.9,3c0,0.3,0,0.5,0,0.7c0,0.3,0,0.6,0,1.1
		c0,1.1-0.3,2-0.7,2.7c0,0.2,0,0.4,0.1,0.7c0.2,0.5,0.3,1.2,0.3,2.1c0,0.7-0.1,1.2-0.3,1.7c0.2,0.5,0.3,1.1,0.3,1.8
		c0.1,0.5,0.3,1.1,0.3,2v1.8c0,1.1-0.2,1.8-0.4,2.3c-0.1,0.8-0.3,1.4-0.5,1.8c0.1,0.4,0.1,0.8,0.1,1.3c0,0.7,0,1.1-0.1,1.5
		c0,0.1,0,0.2,0,0.4c0,0.5,0,0.9-0.1,1.3c0.2,0.4,0.4,0.9,0.5,1.5c0.3,0.6,0.6,1.5,0.6,2.6c0,0.7-0.1,1.4-0.3,1.9
		c0.2,0.5,0.3,1.1,0.3,1.7c0,0.8-0.1,1.4-0.2,1.9c0.1,0.5,0.2,1,0.2,1.7c0,1-0.2,1.8-0.5,2.4c0.1,0.4,0.1,0.8,0.1,1.3
		c0,0.9-0.1,1.4-0.2,1.8c0,0.6,0,0.9,0,1.1c0,0.2,0,0.3,0,0.7l0,0.1c0.1,0.4,0.2,0.9,0.2,1.7c0,0.9-0.2,1.7-0.5,2.3
		c0.1,0.4,0.1,0.8,0.1,1.3c0.1,0.3,0.1,0.6,0.2,1c0.3,0.6,0.6,1.5,0.6,2.7c0,0.9-0.2,1.6-0.4,2.2c0.1,0.3,0.1,0.7,0.1,1.1
		c0.2,0.6,0.4,1.2,0.4,2.2c0,0.3,0,0.4,0,0.5c0,0.3,0.1,0.6,0.1,1.3c0,0.8-0.1,1.4-0.2,1.9c0.1,0.5,0.2,1,0.2,1.8
		c0,0.7-0.1,1.3-0.3,1.8c0.2,0.5,0.3,1.1,0.3,1.8c0,1.1-0.3,2-0.6,2.6c-0.1,0.4-0.1,0.8-0.3,1.1c0.1,0.5,0.3,1.1,0.3,1.8
		c0,0.9-0.1,1.5-0.3,2c0,0.3,0,0.6,0,0.8c0.3,0.6,0.7,1.5,0.7,2.6c0,1.3-0.4,2.2-0.7,2.8c-0.1,0.4-0.1,0.7-0.2,1c0,0.1,0,0.2,0,0.3
		c0.7,0.9,1.1,2,1.1,3.2c0,0.8-0.1,1.4-0.2,1.8c0,0,0,0,0,0c0,0.9-0.2,1.6-0.5,2.2c0.1,0.4,0.2,0.9,0.2,1.5c0,0.9-0.2,1.6-0.4,2.1
		c0,0.2,0.1,0.5,0.1,0.8c0.3,0.6,0.6,1.5,0.6,2.6c0,0.6,0,0.9,0,1.1c0,0.2,0,0.3,0,0.7c0,0.8-0.1,1.3-0.2,1.7c0.2,0.5,0.3,1.1,0.3,2
		c0,0.1,0,0.1,0,0.1l0,0.1c0.1,0.4,0.1,0.8,0.1,1.6c0,1.1-0.3,1.9-0.6,2.6c0,0.3,0.1,0.7,0.1,1.1c0,0.5,0,0.8,0,1c0,0.2,0,0.4,0,0.8
		l0,0.1c0.1,0.3,0.1,0.7,0.1,1.2c0.2,0.5,0.5,1.3,0.5,2.4c0,0.7-0.1,1.3-0.3,1.9c0.2,0.5,0.3,1.1,0.3,1.8c0,1.1-0.3,1.9-0.5,2.4
		c0,0.4-0.1,0.7-0.2,1c0.2,0.6,0.4,1.3,0.4,2.1c0,0.8-0.2,1.6-0.4,2.1c0.1,0.4,0.2,0.9,0.2,1.5c0,0.5-0.1,0.9-0.1,1.3
		c0.3,0.6,0.5,1.4,0.5,2.4c0,0.5,0,0.8,0,1.1c0,0.2,0,0.4,0,0.7c0,0.6,0,0.9-0.1,1.3c0,0.1,0,0.3,0,0.6c0,0.2,0,0.3,0,0.4
		c0,0.4,0.1,0.8,0.1,1.4c0,0.2,0,0.2,0,0.3c0.1,0.4,0.1,0.8,0.1,1.5c0,0.7-0.1,1.4-0.3,1.9c0.2,0.5,0.3,1.1,0.3,1.7
		c0,1-0.2,1.8-0.5,2.3c0.1,0.4,0.1,0.8,0.1,1.3c0,0.6-0.1,1.2-0.3,1.7c0.2,0.5,0.4,1.2,0.4,2c0,0.7,0,1.1-0.1,1.5c0,0.1,0,0.2,0,0.3
		c0,0.6-0.1,1.1-0.2,1.6c0.2,0.6,0.4,1.2,0.4,2c0,0.7-0.1,1.3-0.3,1.9c0.2,0.5,0.3,1.1,0.3,1.8c0,1.1-0.3,2-0.6,2.6
		c0.4,0.7,0.8,1.6,0.8,2.9c0,0.7-0.1,1.3-0.4,1.9c0.2,0.5,0.3,1.1,0.3,1.7c0,0.7-0.1,1.2-0.3,1.7c0.2,0.5,0.3,1.2,0.3,1.9
		c0,0.8-0.1,1.3-0.2,1.8c0,0.6-0.1,1.1-0.2,1.5c0.3,0.7,0.5,1.4,0.5,2.2c0,1.4-0.5,2.4-0.9,3.1c-0.1,0.4-0.2,0.8-0.3,1c0,0,0,0,0,0
		c0,0.4,0.1,0.7,0.1,1.3c0,0.2,0,0.3,0,0.4c0,0.4,0.1,0.7,0.1,1.4c0,0.3,0,0.5,0,0.7c0,0.2,0,0.4,0,0.7c0.2,0.6,0.4,1.2,0.4,2.1
		c0.1,0.5,0.3,1.1,0.3,2c0,1-0.3,1.8-0.6,2.5c0,0.1,0,0.3,0.1,0.4c0.3,0.6,0.6,1.5,0.6,2.6c0,0.2,0,0.3,0,0.5c0,0.4,0.1,0.7,0.1,1.4
		c0,0.6,0,1-0.1,1.4c0,0.1,0,0.2,0,0.5c0,0.8-0.1,1.4-0.3,1.9c0.1,0.5,0.2,1,0.2,1.7c0.1,0.5,0.2,1,0.2,1.8c0,0.6,0,1-0.1,1.3
		c0,0.1,0,0.3,0,0.5c0,0.6-0.1,1.1-0.2,1.6c0.3,0.6,0.4,1.3,0.4,2c0,0.9-0.2,1.6-0.5,2.2c0.1,0.4,0.2,0.9,0.2,1.5
		c0,0.7-0.1,1.2-0.1,1.5c0,0,0,0.1,0,0.1c0.2,0.5,0.3,1.2,0.3,2c0,0.8-0.1,1.4-0.2,1.9c0,0.9-0.2,1.5-0.3,2c0,0.4-0.1,0.8-0.2,1.1
		c0.3,0.6,0.5,1.4,0.5,2.3c0,0.5-0.1,0.9-0.2,1.3c0.4,0.7,0.6,1.5,0.6,2.3c0,1.2-0.4,2.1-0.8,2.8c0.4,0.7,0.7,1.5,0.7,2.6
		c0,1-0.3,1.9-0.8,2.7c0.5,0.8,0.8,1.8,0.8,2.8c0,0.9-0.2,1.7-0.6,2.4c0.1,0.4,0.1,0.8,0.1,1.3c0,0.7-0.1,1.2-0.3,1.7
		c0.2,0.5,0.3,1.2,0.3,1.9c0,0.9-0.2,1.6-0.3,2.1c0,0.4,0,0.7,0,0.9c0,0.1,0,0.3,0,0.6c0,0.6-0.1,1.1-0.2,1.5
		c0.2,0.6,0.4,1.2,0.4,2.1c0.1,0.5,0.2,1,0.2,1.8c0.1,0.5,0.2,1.1,0.2,1.9c0,2.5-1.2,3.7-2.1,4.4l-0.2,0.2c-1.3,1.3-2.4,1.7-4.1,1.7
		l-0.2,0c-0.5,0-1-0.1-1.4-0.2c-0.6,0.3-1.4,0.5-2.3,0.5c-0.8,0-1.3-0.1-1.8-0.2c-1,0-1.7-0.2-2.2-0.4c-0.5,0-0.9-0.1-1.2-0.1
		c-0.5,0.2-1.2,0.4-2.2,0.4c-0.8,0-1.4-0.1-1.9-0.2c-0.3,0-0.7,0-0.9-0.1c-0.7,0.4-1.5,0.7-2.6,0.7c-0.7,0-1.3-0.1-1.9-0.3
		c-1,0.4-2.5,0.4-3.6,0c-0.6,0.2-1.2,0.3-1.8,0.3c-1,0-1.7-0.2-2.2-0.4c-0.4,0.1-0.8,0.1-1.4,0.1c-1.1,0-1.9-0.3-2.6-0.6
		c-0.3,0-0.7,0.1-1.1,0.1c-0.6,0-1.1-0.1-1.6-0.2c-0.5,0.2-1.2,0.4-2.1,0.4l-0.1,0c-0.4,0.1-0.9,0.2-1.7,0.2c-0.5,0-0.8,0-1,0
		c-0.2,0-0.4,0-0.8,0c-1,0-1.8-0.2-2.4-0.5c0,0-0.1,0-0.1,0c-0.7,0.4-1.6,0.9-3,0.9c-1.1,0-1.9-0.3-2.4-0.5c-0.4,0-0.7-0.1-1-0.1
		c-0.1,0-0.1,0-0.3,0c-0.7,0-1.1,0-1.5-0.1c-0.1,0-0.2,0-0.3,0c-0.5,0-0.8,0-1,0c-0.2,0-0.4,0-0.8,0c-0.7,0-1.1-0.1-1.5-0.1
		c-0.1,0-0.2,0-0.3,0c-0.5,0-0.9,0-1.3-0.1c-0.6,0.3-1.3,0.5-2.3,0.5c-0.5,0.1-1.1,0.2-1.9,0.2c-0.8,0-1.4-0.1-1.9-0.2
		c-0.4,0-0.5,0-0.7,0c-0.2,0-0.5,0-1,0c-0.4,0.1-0.9,0.2-1.4,0.2c-0.6,0.2-1.3,0.4-2.3,0.4c-0.8,0-1.5-0.2-2.2-0.5
		c-0.4,0.1-0.9,0.2-1.5,0.2c-1.3,0-2.3-0.4-3-0.9c-0.4,0-0.9,0-1.3,0c-0.9,0.7-1.9,1-3.1,1c-1,0-1.8-0.3-2.4-0.6c-0.1,0-0.2,0-0.4,0
		c-0.6,0.3-1.5,0.7-2.7,0.7c-0.8,0-1.4-0.1-1.9-0.3c-0.5,0.1-1,0.2-1.7,0.2c-0.6,0-1,0-1.4-0.1c-0.1,0-0.2,0-0.4,0
		c-0.1,0-0.1,0-0.3,0c-0.4,0.1-0.8,0.1-1.5,0.1c-1.1,0-1.9-0.2-2.4-0.5c-0.7,0-1.2-0.2-1.6-0.3c-0.4,0-0.6,0-0.8,0
		c-0.2,0-0.3,0-0.7,0c-0.5,0-0.7,0-1,0c-0.2,0-0.4,0-0.8,0c-0.3,0-0.6,0-0.9,0c-0.7,0.4-1.6,0.8-2.8,0.8c-1.2,0-2.1-0.4-2.8-0.8
		c-0.6,0.4-1.5,0.7-2.7,0.7c-0.9,0-1.6-0.2-2.2-0.5c-0.4,0.1-0.9,0.2-1.4,0.2c-0.9,0-1.6-0.1-2.1-0.3l-1.6,0c-0.8,0-1.3-0.1-1.8-0.2
		c-0.5,0.1-1.1,0.2-1.9,0.2c-1,0-1.7-0.2-2.3-0.4c0,0-0.1,0-0.1,0c-0.7,0.5-1.7,0.9-3.1,0.9c-1.1,0-1.9-0.3-2.5-0.5
		c-0.1,0-0.2,0-0.4,0c-0.8,0.5-1.7,0.7-2.6,0.7c-0.4,0-0.6,0-0.8,0c-0.3,0-0.5,0-1,0c-0.8,0-1.4-0.1-1.9-0.3
		c-0.4,0.1-0.9,0.2-1.7,0.2c-1,0-1.7-0.2-2.2-0.4c-0.3,0-0.6-0.1-0.9-0.1c-0.7,0.4-1.5,0.6-2.4,0.6c-0.7,0-1.1,0-1.4-0.1
		c-0.1,0-0.2,0-0.4,0c-0.9,0-1.4-0.1-1.9-0.2c-1.1,0-2-0.3-2.7-0.7c-0.3,0-0.6,0-1,0c-0.2,0-0.3,0-0.5,0c-0.9,0.8-2,1.1-3.2,1.1
		c-0.8,0-1.4-0.1-1.9-0.2c-1,0-2-0.3-2.8-0.9c-0.2,0-0.5,0-0.8,0c-0.7,0-1.1,0-1.5-0.1c-0.2,0-0.5,0-0.8,0c-0.9,0.7-2,1.1-3.2,1.1
		c-0.9,0-1.6-0.2-2.4-0.6c-0.2,0-0.4,0.1-0.6,0.1c-0.5,0.2-1.4,0.5-2.5,0.5c-1.1,0-2-0.3-2.6-0.6c-0.3,0-0.6,0-1.1,0
		c-0.3,0-0.5,0-0.7,0c-0.3,0-0.6,0-1.1,0c-1,0-1.8-0.2-2.4-0.5c0,0,0,0,0,0c-0.3,0-0.6,0-1.2,0c-0.7,0-1.2-0.1-1.7-0.2
		c-0.5,0.2-1.1,0.3-2,0.3c-0.8,0-1.4-0.1-1.9-0.3c-0.5,0.1-1,0.2-1.8,0.2c-0.3,0-0.5,0-0.7,0c-0.3,0-0.6,0-1.1,0
		c-0.5,0.1-1,0.2-1.8,0.2c-0.8,0-1.2-0.1-1.6-0.1l-0.2,0c-0.4,0-0.8,0-1.1-0.1c-0.8,0.5-1.6,0.7-2.6,0.7l-0.1,0
		c-0.4,0.1-0.9,0.2-1.7,0.2c-1,0-1.9-0.3-2.8-0.8c-0.3,0-0.6,0.1-0.9,0.1c-0.2,0-0.4,0-0.5,0c-0.3,0-0.7,0.1-1.3,0.1
		c-0.1,0-0.1,0-0.1,0l-0.1,0c-0.4,0.1-0.9,0.1-1.6,0.1c-1.1,0-1.9-0.3-2.5-0.6c-0.3,0-0.7,0.1-1.1,0.1c-0.2,0-0.3,0-0.5,0
		c-0.9,0.7-2,1.1-3.1,1.1c-0.8,0-1.3-0.1-1.8-0.2c-0.4,0-0.6,0-0.7,0c-0.3,0-0.6,0-1.2,0c-0.8,0-1.5-0.2-2-0.4
		c-0.4,0.1-1,0.2-1.6,0.2c-1.2,0-2.1-0.3-2.7-0.7c-0.8,0.5-1.8,0.8-2.8,0.8l-0.1,0c-0.5,0.1-1,0.2-1.7,0.2c-1.1,0-2-0.3-2.7-0.7
		c-0.3,0-0.6,0.1-1,0.1c-0.6,0-0.9,0-1.1,0c-0.2,0-0.3,0-0.7,0c-0.9,0-1.6-0.2-2.1-0.3c-0.2,0-0.3,0-0.4,0c-0.7,0.4-1.7,0.9-2.9,0.9
		c-0.2,0-0.3,0-0.4,0c-0.4,0-0.8,0.1-1.5,0.1c-0.9,0-1.8-0.2-2.5-0.7c-0.3,0.1-0.6,0.1-0.9,0.1c-0.6,0.2-1.2,0.3-2,0.3
		c-0.5,0-1-0.1-1.4-0.2c-0.6,0.3-1.4,0.5-2.3,0.5c-1.3,0-2.3-0.4-2.9-0.8c-0.2,0-0.4-0.1-0.6-0.1c-0.5,0.2-1,0.3-1.7,0.3
		c-0.6,0.2-1.2,0.3-2.1,0.3c-0.7,0-1.3-0.1-1.7-0.3c-0.5,0.2-1.2,0.3-1.9,0.3c-0.9,0-1.6-0.2-2.2-0.4c-0.8,0.2-2.1,0.2-2.9,0
		c-0.6,0.3-1.3,0.5-2.2,0.5c-0.1,0-0.1,0-0.3,0c-0.4,0.1-0.8,0.1-1.6,0.1c-1,0-1.8-0.2-2.4-0.5c0,0,0,0,0,0c-0.3,0-0.6,0-1.2,0
		c-0.3,0-0.5,0-0.6,0c-0.3,0-0.6,0-1.2,0c-0.6,0-0.9,0-1.1,0c-0.2,0-0.3,0-0.6,0c-0.5,0.1-1,0.2-1.8,0.2c-0.5,0.1-1.1,0.2-1.9,0.2h0
		c-0.8,0-1.4-0.1-1.9-0.2c-0.8,0-1.4-0.1-1.9-0.3c-0.5,0-1-0.1-1.4-0.2c-0.5,0.2-1.2,0.4-2.1,0.4c-0.7,0-1.2-0.1-1.6-0.1l-0.1,0
		c0,0-0.1,0-0.1,0c-0.9,0-1.6-0.2-2.1-0.4c-0.4,0.1-0.9,0.2-1.5,0.2c-0.5,0-0.7,0-1,0c-0.2,0-0.4,0-0.9,0c-0.2,0-0.3,0-0.3,0
		c-0.4,0.1-0.8,0.1-1.5,0.1c-0.6,0-0.8,0-1.1,0c-0.2,0-0.4,0-0.7,0c-0.7,0-1.2-0.1-1.7-0.2c-0.5,0.2-1.1,0.3-2,0.3
		c-0.5,0-0.9-0.1-1.3-0.1c-0.6,0.3-1.4,0.6-2.4,0.6c-1,0-1.7-0.2-2.4-0.5c-0.4,0.1-0.8,0.1-1.3,0.1c-0.9,0-1.6-0.2-2.1-0.3
		c-0.2,0-0.3,0-0.5,0c-0.3,0-0.5,0-1.1,0c-0.3,0-0.5,0-0.7,0c-0.9,0.6-1.8,0.9-2.9,0.9c-1.2,0-2.2-0.4-2.9-0.8
		c-0.8,0.5-1.7,0.7-2.6,0.7c-0.6,0-1,0-1.4-0.1c-0.1,0-0.2,0-0.4,0c-0.8,0-1.6-0.2-2.3-0.5c-0.2,0.1-0.4,0.1-0.7,0.1
		c-0.6,0.3-1.4,0.6-2.5,0.6c-1.1,0-1.9-0.3-2.5-0.6c-0.3,0-0.7,0.1-1.1,0.1c-0.2,0-0.2,0-0.3,0c-0.4,0.1-0.8,0.1-1.5,0.1
		c-0.7,0-1.2-0.1-1.6-0.1l-0.1,0c-0.5,0.2-1.1,0.3-2,0.3c-0.5,0-1-0.1-1.5-0.2c-1.3,0.6-2.9,0.6-4.2,0.1c-0.9,0.3-2.2,0.3-3.1,0
		c-0.6,0.2-1.3,0.4-2.1,0.4c-0.9,0-1.6-0.2-2.4-0.6c-0.4,0.1-0.8,0.1-1.3,0.1c-0.2,0-0.4,0-0.5,0c-0.3,0-0.7,0.1-1.3,0.1
		c-0.7,0-1.2-0.1-1.6-0.1l-0.1,0c0,0-0.1,0-0.1,0c-0.9,0-1.6-0.1-2.1-0.3c-0.3,0-0.4,0-0.6,0c-0.2,0-0.5,0-1,0c-0.3,0-0.5,0-0.7,0
		c0,0-0.1,0-0.1,0c-0.6,0.4-1.6,0.8-2.8,0.8c-0.8,0-1.4-0.2-2-0.4c-0.5,0.2-1,0.3-1.7,0.3c-1.1,0-2-0.3-2.6-0.6l-1,0
		c-1,0-1.7-0.2-2.2-0.4c-0.1,0-0.2,0-0.4,0c-0.6,0.4-1.6,0.8-2.9,0.8c-0.2,0-0.3,0-0.5,0c-0.4,0-0.7,0.1-1.4,0.1
		c-1.2,0-2.1-0.4-2.8-0.8c-0.6,0.3-1.5,0.7-2.7,0.7c-0.4,0-0.6,0-0.7,0c-0.3,0-0.5,0-1.1,0c-0.9,0-1.6-0.2-2.1-0.3
		c-0.2,0-0.4,0-0.6,0c-0.2,0-0.5,0-1,0c-0.5,0-0.9,0-1.3-0.1c-0.6,0.3-1.4,0.5-2.3,0.5c-1.1,0-2-0.3-2.7-0.7
		c-0.8,0.5-1.8,0.8-2.8,0.8c-0.9,0-1.6-0.2-2.2-0.4c-0.8,0-1.4-0.2-1.9-0.4c0,0,0,0-0.1,0c-0.4,0-0.7,0.1-1.4,0.1
		c-0.6,0-1,0-1.4-0.1c-0.5,0.2-1.3,0.4-2.3,0.4c-1,0-1.9-0.3-2.5-0.6c0,0-0.1,0-0.1,0c-0.6,0.4-1.5,0.8-2.8,0.8
		c-0.5,0.1-1.1,0.2-1.9,0.2c-0.9,0-1.4-0.1-1.9-0.2c-0.5,0-1-0.1-1.4-0.2c-0.6,0.3-1.3,0.5-2.2,0.5c-1,0-1.9-0.3-2.7-0.8
		c-0.8,0.5-1.7,0.8-2.7,0.8c-1,0-1.7-0.2-2.3-0.5c-0.4,0.1-0.8,0.1-1.3,0.1c-1.2,0-2-0.3-2.6-0.6c-0.2,0-0.5,0-1,0
		c-0.3,0-0.5,0-0.7,0c-0.9,0.6-1.8,0.9-2.9,0.9c-0.2,0-0.3,0-0.4,0c-0.4,0-0.8,0.1-1.4,0.1c-0.9,0-1.4-0.1-1.9-0.3
		c-0.6,0-0.9,0-1.2-0.1c-0.1,0-0.3,0-0.5,0c-0.6,0-1.1-0.1-1.5-0.2c-0.7,0.3-1.4,0.4-2.1,0.4c-0.7,0-1.3-0.1-1.8-0.3
		c-0.5,0.2-1.1,0.3-1.8,0.3c-0.9,0-1.5-0.1-2-0.3c-0.4,0-0.8-0.1-1.1-0.1c-0.6,0.3-1.4,0.5-2.3,0.5c-0.7,0-1.4-0.1-1.9-0.3
		c-0.5,0.2-1.1,0.3-1.8,0.3l-1.8,0c-1.4,0-2.4-0.5-3.1-1c-1.8,0.7-3.7,0.3-5.2-1.2c-1.5-1.5-1.9-3.5-1.1-5.3
		c-0.4-0.7-0.9-1.6-0.9-2.9c0-0.8,0.1-1.4,0.2-1.8c0,0,0,0,0,0c0-0.1,0-0.1,0-0.3c-0.1-0.4-0.1-0.8-0.1-1.5
		c-0.1-0.5-0.2-1.1-0.2-1.9c0-1,0.2-1.8,0.4-2.3c0-0.4,0-0.6,0.1-0.8c0-0.1,0-0.2,0-0.3c-0.2-0.5-0.3-1.2-0.3-2
		c-0.1-0.5-0.2-1-0.2-1.8c0-0.9,0.2-1.6,0.4-2.1c-0.1-0.4-0.2-0.9-0.2-1.5c0-0.4,0-0.6,0-0.8c0-0.2,0-0.5,0-1c0-0.5,0-0.8,0-1.1
		c0-0.2,0-0.4,0-0.7c0-1,0.3-1.9,0.6-2.5c-0.4-0.7-0.9-1.6-0.9-2.9c0-0.9,0.1-1.4,0.2-1.9c0-0.7,0.2-1.4,0.3-1.9
		c-0.1-0.5-0.2-1-0.2-1.7c0-0.9,0.1-1.6,0.3-2.1c0-0.3,0-0.5,0-0.7c-0.4-0.7-0.7-1.6-0.7-2.7c0-0.8,0.2-1.6,0.6-2.3
		c-0.1-0.4-0.1-0.8-0.1-1.3c0-0.6,0.1-1.2,0.2-1.6c-0.2-0.5-0.4-1.2-0.4-2c0-0.6,0-0.9,0-1.2c0-0.1,0-0.2,0-0.4
		c-0.2-0.6-0.3-1.2-0.3-2.1c0-0.3,0-0.5,0-0.7c0-0.3,0-0.6,0-1.1c0-1.3,0.4-2.3,0.9-2.9c0-0.2,0-0.4,0-0.7c-0.1-0.5-0.2-1-0.2-1.8
		c0-0.9,0.2-1.6,0.4-2.2c0,0,0,0,0,0c0-0.4-0.1-0.7-0.1-1.4c0-0.3,0-0.5,0-0.7c-0.4-0.7-0.9-1.6-0.9-2.9c0-0.3,0-0.4,0-0.5
		c0-0.3-0.1-0.7-0.1-1.3c0-1.3,0.4-2.3,0.8-2.9c0-0.2,0.1-0.5,0.1-0.6c-0.2-0.5-0.3-1.1-0.3-1.9c0-0.4,0-0.8,0.1-1.2
		c-0.3-0.6-0.6-1.4-0.6-2.4c0-1.2,0.4-2.1,0.7-2.7c0.1-0.6,0.2-1.1,0.4-1.4c0-0.1,0-0.2,0-0.2c0-0.3,0-0.5,0-1.1l0-1.2
		c-0.2-0.4-0.4-1-0.5-1.6c-0.3-0.6-0.6-1.5-0.6-2.7c0-0.7,0.1-1.3,0.3-1.7c-0.2-0.5-0.3-1.2-0.3-1.9c0-1.1,0.3-2,0.9-2.9
		c0-0.2,0-0.5,0-0.7c0-0.3,0-0.7,0.1-0.9c-0.4-0.7-0.7-1.6-0.7-2.7c0-0.6,0.1-1.1,0.2-1.6c-0.3-0.6-0.4-1.3-0.4-2
		c0-0.8,0.2-1.5,0.5-2.2c-0.1-0.4-0.2-0.9-0.2-1.4c0-1,0.3-1.9,0.6-2.5c-0.6-0.9-1-1.9-1-3c0-1.2,0.4-2.1,0.7-2.7c0-0.2,0-0.5,0-0.9
		c0-0.7,0.1-1.2,0.1-1.6c0-0.1,0-0.1,0-0.2c0-0.4,0-0.8,0.1-1.1c-0.4-0.6-0.7-1.5-0.7-2.6c0-1.2,0.3-2,0.7-2.7
		c-0.6-0.8-0.8-1.8-0.8-2.8c0-1.1,0.2-1.9,0.5-2.5c0-0.2,0-0.3,0.1-0.5c-0.3-0.6-0.6-1.4-0.6-2.5c0-1.4,0.5-2.4,0.9-3
		c0-0.2,0.1-0.4,0.1-0.6c-0.1-0.5-0.2-1.1-0.2-1.8c0-0.5,0-0.9,0.1-1.3c-0.3-0.6-0.5-1.4-0.5-2.4c0-0.7,0-1,0.1-1.3
		c0-0.1,0-0.2,0-0.3c-0.2-0.5-0.3-1.2-0.3-2c0-0.9,0.1-1.5,0.3-2c0,0,0-0.1,0-0.1c-0.1-0.4-0.1-0.8-0.1-1.5c0-0.6,0-0.8,0-1.1
		c0-0.2,0-0.4,0-0.7c0-0.9,0.2-1.6,0.4-2.1c0-0.2-0.1-0.4-0.1-0.7c-0.3-0.6-0.6-1.5-0.6-2.7c0-0.4,0-0.6,0-0.8c0-0.3,0-0.5,0-1.1
		c0-0.9,0.1-1.5,0.3-2l0-1.7c0-0.8,0.2-1.4,0.4-2c-0.2-0.5-0.3-1-0.3-1.7c0-0.2,0-0.4,0-0.5c0-0.3-0.1-0.7-0.1-1.3
		c0-0.8,0.1-1.4,0.3-1.9c0,0,0,0,0,0l0-0.1c0-0.3-0.1-0.6-0.1-1c-0.2-0.5-0.5-1.3-0.5-2.4c0-0.7,0-1.1,0.1-1.4c0-0.1,0-0.2,0-0.4
		c0-0.6,0.1-1.1,0.2-1.6c-0.2-0.6-0.4-1.3-0.4-2.1c0-0.8,0.1-1.4,0.4-2c-0.1-0.5-0.2-1-0.2-1.7c0-1,0.2-1.9,0.7-2.7
		c-0.4-0.7-0.8-1.6-0.8-2.8c0-1.1,0.3-2.1,1-3c-0.3-0.6-0.6-1.5-0.6-2.5c0-0.5,0-0.7,0-1c0-0.2,0-0.4,0-0.8c0-0.9,0.2-1.6,0.4-2.2
		c-0.1-0.3-0.1-0.6-0.2-1c-0.2-0.6-0.4-1.3-0.4-2.3c0-0.8,0.1-1.3,0.1-1.7l0-0.2c0-0.9,0.2-1.6,0.4-2.2c-0.1-0.4-0.2-0.9-0.2-1.5
		c0-0.9,0.2-1.6,0.4-2.2c0-0.7,0.1-1.1,0.2-1.6c0-0.1,0-0.2,0-0.3c0,0,0-0.1,0-0.1c-0.5-0.7-1-1.7-1-3.1c0-0.6,0.1-1.1,0.2-1.5
		c-0.3-0.6-0.4-1.3-0.4-2.1c0-1.2,0.4-2.2,0.8-2.8c0-0.1,0-0.1,0-0.2c-0.3-0.6-0.5-1.4-0.5-2.5l0-0.1c-0.1-0.4-0.2-0.9-0.2-1.7
		c0-1.2,0.3-2.1,0.7-2.7c-0.5-0.8-0.8-1.7-0.8-2.7c0-1.3,0.4-2.3,0.9-3c0-0.1,0-0.3,0-0.4c0-0.1,0-0.2,0-0.3c0-0.6,0-1,0.1-1.3
		c-0.3-0.6-0.5-1.3-0.5-2.2c-0.1-0.5-0.2-1.1-0.2-1.9c0-1.1,0.2-1.8,0.5-2.5c0,0,0-0.1,0-0.1c-0.6-0.9-0.9-1.8-0.9-2.9
		c0-0.9,0.2-1.7,0.5-2.3c-0.1-0.4-0.1-0.8-0.1-1.4c0-0.9,0.2-1.6,0.5-2.2c-0.1-0.4-0.2-0.9-0.2-1.4c0-0.7,0.1-1.4,0.3-1.8
		c-0.1-0.3-0.2-0.7-0.2-1.2c-0.2-0.5-0.5-1.3-0.5-2.4c0-1,0.2-1.8,0.4-2.3c0,0,0,0,0-0.1c0-0.3-0.1-0.7-0.1-1.3
		c0-0.8,0.1-1.4,0.3-1.9c-0.1-0.5-0.2-1.1-0.2-1.8c0-0.7,0.1-1.3,0.3-1.8c-0.2-0.5-0.3-1.1-0.3-1.8c0-1,0.2-1.7,0.4-2.2
		c0-0.4,0-0.6,0.1-0.9c-0.2-0.5-0.4-1-0.4-1.7c-0.2-0.5-0.5-1.3-0.5-2.4c0-0.6,0.1-1.3,0.3-1.8c-0.2-0.6-0.3-1.2-0.3-1.8
		c0-1,0.2-1.8,0.5-2.4c-0.1-0.4-0.1-0.8-0.1-1.3c0-0.2,0-0.3,0-0.4c0-0.4-0.1-0.8-0.1-1.5c-0.1-0.5-0.2-1-0.2-1.8c0-0.1,0-0.1,0-0.1
		l0-0.1c-0.1-0.4-0.1-0.9-0.1-1.6c0-1.1,0.3-1.9,0.6-2.5c0-0.2,0-0.3,0-0.4c0-0.1,0-0.3,0-0.4c-0.2-0.5-0.3-1.1-0.3-1.9
		c-0.1-0.5-0.3-1.1-0.3-2c0-1.1,0.3-1.9,0.5-2.4c0-0.4,0.1-0.8,0.2-1.1c-0.2-0.5-0.3-1.1-0.3-1.9c0-0.7,0-1.1,0.1-1.4
		c0-0.1,0-0.2,0-0.4c-0.1-0.4-0.1-0.8-0.2-1.3c-0.2-0.5-0.4-1.3-0.4-2.3c0-1.1,0.3-2,0.9-2.9c-0.3-0.6-0.6-1.5-0.6-2.6
		c0-0.6,0.1-1.1,0.2-1.6c-0.2-0.5-0.3-1.2-0.3-2.1c0-1.2,0.3-2,0.7-2.7c0-0.2,0-0.3,0-0.5c-0.2-0.6-0.4-1.3-0.4-2.3l0-1.8
		c0-0.8,0.1-1.3,0.2-1.8c-0.1-0.5-0.2-1.1-0.2-1.8c0-0.9,0.2-1.6,0.3-2.1c0-0.5,0.1-1,0.2-1.4c-0.2-0.5-0.3-1.2-0.3-1.9
		c0-0.5,0-0.9,0.1-1.3c-0.3-0.6-0.5-1.4-0.5-2.3c0-1,0.3-2,0.8-2.8c0-0.1,0-0.3,0-0.4c-0.3-1.2-0.4-3,1.4-4.8
		c0.9-0.9,2.3-1.9,4.5-1.6c0.4,0,0.8,0,1.1,0.1c0.6-0.3,1.4-0.6,2.4-0.6c0.5-0.1,1.1-0.2,1.9-0.2c0.6,0,0.9,0,1.2,0
		c0.2,0,0.3,0,0.6,0c1.2,0,2.3,0.4,3.2,1.1c0.3-0.1,0.7-0.3,1.2-0.3c0.6-0.4,1.6-0.8,2.8-0.8c1.3,0,2.4,0.5,3,0.9
		c0.6-0.3,1.4-0.5,2.4-0.5c1.2,0,2.1,0.3,2.7,0.7c0.1,0,0.2,0,0.3,0c0.1,0,0.2,0,0.4,0c0.6-0.2,1.2-0.4,2.1-0.4c0.6,0,1,0,1.3,0.1
		c0.1,0,0.3,0,0.5,0c0.8,0,1.5,0.1,2,0.3c0.2-0.1,0.4-0.1,0.7-0.1c0.6-0.3,1.5-0.7,2.8-0.7c0.9,0,1.4,0.1,1.9,0.2
		c0.8,0,1.4,0.1,1.9,0.3c0.5-0.1,1-0.2,1.7-0.2c0.2,0,0.2,0,0.3,0c0.2,0,0.5-0.1,0.9-0.1c0.5-0.2,1.3-0.5,2.4-0.5
		c0.8,0,1.5,0.2,2.1,0.5c0.4-0.1,0.9-0.2,1.5-0.2c0.5-0.1,1-0.2,1.8-0.2c1.1,0,2,0.3,2.6,0.6c0.3,0,0.6,0,1,0c0.9,0,1.6,0.2,2.2,0.4
		c0.5,0,0.9,0.1,1.2,0.1c0,0,0.1,0,0.1,0c0.3-0.1,0.6-0.2,0.9-0.2c0.6-0.4,1.6-0.8,2.9-0.8c1,0,1.8,0.2,2.3,0.5
		c0.7-0.1,1.7-0.1,2.4,0c0.6-0.3,1.5-0.6,2.5-0.6c0.6,0,1,0,1.3,0.1c0.1,0,0.2,0,0.5,0c1.3,0,2.3,0.4,2.9,0.9c0.2,0,0.4,0.1,0.6,0.1
		c0.5-0.1,1.1-0.2,1.8-0.3c0.5-0.1,1.1-0.2,1.9-0.2c0.6,0,0.9,0,1.2,0c0.6-0.3,1.4-0.5,2.5-0.5c0.9,0,1.7,0.2,2.3,0.5
		c0.4-0.1,0.8-0.1,1.4-0.1c0.7,0,1.2,0.1,1.6,0.2c0.5-0.2,1.2-0.3,2-0.3c0.8,0,1.4,0.1,1.9,0.3c0.5-0.1,1.1-0.2,1.8-0.2
		c0.7,0,1.2,0.1,1.7,0.3c0.6-0.2,1.2-0.4,1.9-0.4c0.9,0,1.6,0.2,2.1,0.3c0.8,0,1.5,0.2,2,0.5c0.3-0.1,0.7-0.1,1.1-0.1
		c0.6-0.2,1.2-0.3,2-0.3c0.3,0,0.4,0,0.6,0c0.2,0,0.3,0,0.6,0c0.6-0.3,1.4-0.5,2.5-0.5c1.2,0,2.2,0.4,2.9,0.8c0.2,0,0.4,0,0.8,0
		c0.5,0,0.8,0,1.1,0c0.1,0,0.3,0,0.5,0c0.6-0.2,1.2-0.3,2.1-0.3c0.2,0,0.3,0,0.5,0c0.4,0,0.7-0.1,1.4-0.1c0.7,0,1,0,1.3,0.1
		c0.1,0,0.2,0,0.5,0c1,0,1.7,0.2,2.2,0.4c0.1,0,0.2,0,0.3,0c0.1,0,0.2,0,0.3,0c0.6-0.3,1.5-0.6,2.6-0.6c0.7,0,1.3,0.1,1.8,0.3
		c0.5-0.2,1.1-0.3,1.8-0.3c0.6,0,1.1,0.1,1.6,0.2c0.5-0.2,1.2-0.4,2.1-0.4c0.9,0,1.8,0.2,2.6,0.7c0.1,0,0.2,0,0.3,0
		c0.6-0.3,1.4-0.5,2.5-0.5l0.1,0c0.4-0.1,0.9-0.2,1.7-0.2c0.8,0,1.5,0.2,2,0.4c0.5-0.1,1-0.2,1.6-0.2h1.8c0.7,0,1.3,0.1,1.8,0.3
		c0.5-0.2,1.1-0.3,1.8-0.3c1.1,0,2,0.3,2.6,0.7c0,0,0,0,0.1,0c0.6-0.3,1.5-0.7,2.7-0.7c1.2,0,2.2,0.4,2.8,0.7c0.4,0,0.6,0.1,0.9,0.2
		c0.3,0,0.4,0,0.5,0c0.3,0,0.6,0,1.2,0c0.4,0,0.7,0,0.9,0c0.6-0.4,1.5-0.7,2.7-0.7c0.5,0,0.8,0,1,0c0.2,0,0.4,0,0.8,0
		c0.8,0,1.5,0.1,2,0.3c0.5-0.1,1-0.2,1.6-0.2c1,0,1.8,0.3,2.4,0.5c0.9-0.7,1.9-1,3-1c0.8,0,1.5,0.2,2.1,0.4c0.5-0.1,1-0.2,1.6-0.2
		c0.7,0,1.1,0.1,1.5,0.1c0.1,0,0.1,0,0.3,0c0.5-0.1,1-0.2,1.8-0.2c1.1,0,1.9,0.3,2.4,0.5c0.6,0.1,1.1,0.2,1.6,0.4
		c0.3-0.1,0.6-0.1,1-0.1c0.5-0.2,1.3-0.4,2.3-0.4c1.2,0,2.1,0.4,2.8,0.7c0.2,0,0.5,0,0.9,0l1.8,0c0.6,0,1.1,0.1,1.5,0.1
		c0.5-0.2,1.2-0.4,2.1-0.4c0.6,0,0.9,0,1.2,0c0.2,0,0.3,0,0.7,0c0.4,0,0.8,0,1.1,0.1c0.3-0.2,0.6-0.3,1-0.5l0.3-0.1
		c0.5-0.4,0.7-0.5,0.9-0.7c0.1-0.1,0.3-0.2,0.6-0.4c0.2-0.2,0.4-0.3,0.5-0.4c0.2-0.2,0.5-0.4,0.9-0.8c0.1-0.1,0.2-0.2,0.2-0.2
		c0.3-0.3,0.6-0.6,1.1-1c0.8-0.6,1.5-0.9,2.2-1c0.3-1.1,0.9-2.1,1.8-2.8c0.4-0.3,0.6-0.5,0.8-0.6c0.2-0.1,0.3-0.2,0.6-0.5
		c0.8-0.7,1.6-0.9,2.1-1.1c0.3-0.2,0.6-0.3,0.9-0.5c0.3-0.6,0.7-1.1,1.4-1.6c0.9-0.7,1.6-1,2.2-1.1c0.5-0.3,1-0.5,1.5-0.7
		c0-0.1,0.1-0.1,0.1-0.2c0.2-0.8,0.7-1.9,1.9-2.7c0.9-0.7,1.9-1.1,3-1.1c0.1-0.1,0.3-0.3,0.5-0.4c0.4-0.3,0.7-0.5,0.9-0.7
		c0.1-0.1,0.3-0.2,0.6-0.4c0.4-0.3,0.6-0.4,0.8-0.6c0.2-0.1,0.3-0.3,0.7-0.5c0.2-0.1,0.2-0.2,0.3-0.3c0.2-0.2,0.3-0.3,0.6-0.5
		c0.3-0.6,0.8-1.3,1.6-1.9c0.5-0.4,0.8-0.6,1.1-0.8c0.1-0.1,0.2-0.1,0.4-0.3c0.1-0.1,0.1-0.1,0.2-0.2c0.3-0.3,0.6-0.6,1.2-1.1
		c0.6-0.5,1-0.7,1.3-0.9l0.1,0c0,0,0.1,0,0.1-0.1c0.4-0.3,0.6-0.4,0.8-0.6c0.2-0.1,0.3-0.3,0.7-0.5c0.4-0.3,0.6-0.5,0.8-0.6
		c0.1,0,0.1-0.1,0.2-0.1c0.3-0.6,0.8-1.3,1.6-1.9c0.5-0.4,0.7-0.5,1-0.7c0.1-0.1,0.2-0.2,0.5-0.3c0.7-0.5,1.4-0.8,2-1
		c0.3-0.4,0.6-0.7,1.1-1.1c1-0.7,1.9-1,2.6-1.1c0.4-0.2,0.8-0.4,1.1-0.5c0.2-0.2,0.3-0.3,0.5-0.4c0.1-0.1,0.3-0.2,0.5-0.4
		c0.3-0.5,0.7-1,1.4-1.5c0.3-0.4,0.6-0.8,1.1-1.2c0.3-0.5,0.8-1.1,1.5-1.6c0.8-0.6,1.6-0.9,2.3-1c0.1-0.2,0.3-0.3,0.5-0.5
		c0.3-0.5,0.8-1.2,1.6-1.8c0.9-0.7,1.7-1,2.4-1.1c0.1-0.1,0.3-0.2,0.4-0.2c0.3-0.6,0.8-1.3,1.6-2c0.8-0.6,1.4-0.9,2-1.1
		c0.5-0.4,0.9-0.6,1.3-0.7c0.4-0.3,0.6-0.4,0.7-0.6c0,0,0.1-0.1,0.1-0.1c0.3-0.6,0.8-1.2,1.6-1.9c0.9-0.7,1.9-1,2.5-1.1
		c0.1,0,0.1-0.1,0.1-0.1c0.2-0.1,0.3-0.2,0.6-0.5c0.3-0.2,0.5-0.3,0.6-0.5c0.3-0.8,0.8-1.7,1.8-2.4c0.5-0.4,0.9-0.6,1.3-0.8
		c0.3-0.5,0.7-1.1,1.4-1.6c0.9-0.7,1.7-1,2.2-1.1c0.4-0.2,0.7-0.4,1.1-0.6c0.3-0.4,0.7-0.9,1.3-1.3l1-0.8c0.3-0.5,0.8-1.2,1.6-1.8
		c0.7-0.6,1.5-0.9,2.1-1c0.1-0.2,0.3-0.3,0.5-0.5c0.3-0.5,0.8-1.2,1.6-1.9c0.4-0.3,0.7-0.5,0.9-0.7c0.1-0.1,0.3-0.2,0.6-0.4
		c0.7-0.5,1.4-0.8,2-1c0.3-0.3,0.6-0.7,1-1c0.4-0.3,0.8-0.6,1.2-0.7c0.3-0.6,0.8-1.2,1.5-1.8c1-0.8,2-1,2.7-1.1
		c0.3-0.6,0.8-1.4,1.7-2.1c0.5-0.4,0.9-0.6,1.3-0.8c0.3-0.6,0.8-1.1,1.4-1.6c0.6-0.5,1.2-0.8,1.9-0.9c0.3-0.4,0.6-0.8,1.1-1.1
		c0.9-0.7,1.7-1,2.2-1.1c0.4-0.2,0.7-0.4,1.1-0.5c0.3-0.5,0.7-0.9,1.3-1.4l1.1-0.8c0.3-0.5,0.8-1.1,1.5-1.7c0.7-0.6,1.4-0.9,2-1
		c0.1-0.1,0.1-0.1,0.2-0.2c0.2-0.2,0.4-0.4,0.9-0.7c0.7-0.6,1.4-0.9,2-1c0.4-0.3,0.8-0.5,1.1-0.7c0.3-0.5,0.7-1,1.4-1.5
		c0.7-0.5,1.3-0.8,1.9-1c0.1-0.1,0.1-0.1,0.2-0.2c0.2-0.8,0.7-1.9,1.9-2.7c1-0.8,2-1,2.8-1.1c0.3-0.6,0.8-1.4,1.7-2.1
		c0.9-0.7,1.7-1,2.2-1.1c0.7-0.4,1.3-0.6,1.7-0.8c0.3-0.2,0.5-0.4,0.8-0.5c0.1,0,0.2-0.1,0.3-0.2l0.1-0.1c0.1-0.1,0.2-0.2,0.3-0.3
		c0.2-0.8,0.7-1.8,1.8-2.7c0.6-0.5,1.2-0.7,1.8-0.9c0.3-0.4,0.7-0.8,1.2-1.2c0.8-0.6,1.5-0.9,2.1-1.1c0.7-0.5,1.3-0.7,1.8-0.8
		c0.1-0.1,0.2-0.2,0.3-0.2c0.1-0.1,0.2-0.1,0.3-0.2c0.3-0.5,0.7-1.1,1.5-1.7c0.3-0.2,0.4-0.3,0.6-0.5c0.2-0.2,0.4-0.4,0.9-0.7
		c0.4-0.3,0.7-0.5,1-0.7c0.3-0.6,0.8-1.3,1.6-1.9c0.6-0.5,1-0.7,1.4-0.9l0.1,0c0.3-0.4,0.7-0.9,1.4-1.4c1.1-0.9,2.3-1.1,3.2-1.1
		c0.1,0,0.1-0.1,0.2-0.1c0,0,0.1,0,0.1-0.1c0.2-0.3,0.4-0.5,0.7-0.8c0.3-0.6,0.8-1.5,1.7-2.2c0.5-0.4,0.8-0.6,1.1-0.8
		c0.1-0.1,0.2-0.1,0.4-0.3c0.4-0.3,0.6-0.4,0.8-0.6c0.1-0.1,0.2-0.2,0.4-0.3c0.8-1,1.7-1.6,2.9-1.7C370.3,6.2,370.6,6.2,370.8,6.2z
		 M359.9,29.8c-0.1-0.7-0.1-1.6,0.3-2.5c0.2-0.7,0.5-1.1,0.6-1.4c0-0.1,0.1-0.1,0.1-0.3c0-0.1,0-0.1,0.1-0.2
		c0.1-0.4,0.2-0.8,0.4-1.5c0.1-0.4,0.3-0.7,0.5-1c-0.1,0.1-0.2,0.1-0.3,0.2c-0.3,0.6-0.8,1.3-1.6,1.9c-0.7,0.5-1.1,0.8-1.5,0.9
		c0,0,0,0,0,0c-0.3,0.2-0.4,0.3-0.6,0.5c-0.1,0.1-0.3,0.2-0.5,0.4c-0.3,0.5-0.7,1.1-1.5,1.7c-0.4,0.3-0.6,0.4-0.8,0.6
		c-0.2,0.1-0.3,0.3-0.7,0.5c-0.9,0.7-1.7,1-2.3,1.1c-0.2,0.1-0.3,0.2-0.5,0.3c-0.3,0.6-0.8,1.3-1.6,2c-0.6,0.5-1.2,0.7-1.7,0.9
		c-0.3,0.4-0.7,0.9-1.2,1.3l-0.1,0.1c-0.3,0.3-0.6,0.7-1.2,1.1c-0.5,0.4-0.9,0.6-1.2,0.8c-0.1,0-0.2,0.1-0.3,0.2
		c-0.9,0.7-1.7,1-2.2,1.1c-0.3,0.2-0.5,0.3-0.8,0.4c-0.3,0.5-0.8,1.1-1.4,1.6c-0.5,0.4-0.7,0.5-1,0.7c-0.1,0.1-0.3,0.2-0.5,0.4
		c-0.5,0.4-1,0.6-1.5,0.8c-0.3,0.5-0.7,1-1.3,1.5c-0.3,0.4-0.7,0.8-1.3,1.3c-0.6,0.5-1.2,0.8-1.7,0.9c-0.3,0.4-0.7,0.8-1.2,1.2
		c-0.6,0.5-1,0.7-1.4,0.9l-0.2,0.1c-0.7,0.6-1.4,0.9-1.9,1c-0.1,0.1-0.2,0.1-0.2,0.2c-0.2,0.2-0.4,0.4-0.9,0.7
		c-0.6,0.4-1.1,0.7-1.6,0.9c-0.3,0.4-0.7,0.9-1.3,1.3l-0.8,0.6c-0.3,0.6-0.8,1.4-1.7,2.1c-0.9,0.7-1.9,1-2.5,1.1
		c-0.1,0.1-0.2,0.1-0.3,0.2c-0.3,0.6-0.8,1.3-1.6,1.9c-0.6,0.5-1.2,0.8-1.9,0.9c-0.3,0.4-0.6,0.8-1.1,1.1c-0.5,0.4-1.1,0.7-1.6,0.9
		c-0.3,0.5-0.7,0.9-1.3,1.4c-0.5,0.4-0.9,0.6-1.2,0.8c-0.1,0-0.1,0.1-0.3,0.2c-0.5,0.4-1,0.7-1.5,0.8c-0.3,0.5-0.7,1-1.3,1.4
		c-0.5,0.4-0.9,0.6-1.3,0.8c-0.3,0.5-0.8,1.1-1.4,1.6c-1.1,0.9-2.2,1.1-3.1,1.1c-0.2,0.4-0.5,0.8-1,1.3c-0.3,0.7-0.8,1.4-1.7,2
		c-0.8,0.6-1.6,0.9-2.3,1c-0.2,0.3-0.5,0.6-0.9,0.8l-1.1,0.9c-0.3,0.5-0.8,1.1-1.5,1.7c-0.8,0.6-1.5,0.9-2.1,1.1
		c-0.4,0.3-0.8,0.4-1.1,0.6c-0.3,0.5-0.7,1-1.3,1.5c-0.4,0.3-0.7,0.5-1,0.6c-0.3,0.6-0.8,1.4-1.6,2c-0.5,0.4-0.7,0.5-1,0.7
		c-0.1,0.1-0.3,0.2-0.5,0.4c-0.4,0.3-0.6,0.5-0.8,0.6c-0.2,0.1-0.3,0.2-0.6,0.5c-0.6,0.5-1.3,0.8-1.8,1c-0.3,0.4-0.7,0.8-1.1,1.2
		c-0.4,0.3-0.6,0.5-0.9,0.6c-0.2,0.1-0.3,0.2-0.6,0.5c-0.7,0.5-1.2,0.8-1.7,1c-0.4,0.3-0.7,0.5-1.1,0.7c-0.3,0.6-0.8,1.2-1.5,1.8
		c-0.7,0.5-1.2,0.8-1.6,1c-0.6,0.5-1.2,0.7-1.7,0.9c-0.2,0.3-0.5,0.6-0.8,0.9c-0.3,0.5-0.8,1.2-1.6,1.8c-0.8,0.6-1.7,0.9-2.4,1.1
		c-0.2,0.2-0.4,0.4-0.7,0.7c-0.3,0.4-0.6,0.7-1.1,1.2c-0.3,0.5-0.8,1.1-1.5,1.6c-0.3,0.3-0.5,0.4-0.7,0.5c-0.2,0.2-0.4,0.3-0.8,0.6
		c-0.7,0.6-1.3,0.8-1.8,1c-0.5,0.4-1,0.6-1.4,0.7c-0.3,0.4-0.7,0.9-1.3,1.3c-1.1,0.8-2.1,1.1-2.9,1.1c0,0,0,0,0,0c0,0,0,0,0,0
		c-0.3,0.6-0.8,1.2-1.6,1.8c-0.4,0.3-0.6,0.5-0.8,0.6c-0.2,0.1-0.3,0.2-0.6,0.5c-0.4,0.3-0.6,0.4-0.8,0.6l-0.7,0.5
		c-0.6,0.5-1,0.7-1.3,0.9l-0.1,0c0,0-0.1,0-0.1,0.1c-0.1,0.1-0.1,0.1-0.2,0.2c-0.3,0.3-0.6,0.6-1.2,1.1c-0.5,0.4-0.8,0.6-1.1,0.7
		c-0.3,0.6-0.8,1.2-1.6,1.8c-0.2,0.1-0.2,0.2-0.3,0.3c-0.3,0.3-0.6,0.5-1.1,0.9c-0.4,0.3-0.6,0.4-0.8,0.6c-0.2,0.1-0.3,0.3-0.7,0.5
		c-0.4,0.3-0.7,0.5-0.9,0.7c-0.1,0.1-0.3,0.2-0.5,0.4c-0.3,0.4-0.7,0.9-1.4,1.4c-0.6,0.5-1.4,0.8-2.1,1c-0.1,0.2-0.3,0.4-0.5,0.5
		c-0.3,0.6-0.8,1.3-1.7,2c-1,0.8-2.1,1.1-2.8,1.1c0,0,0,0-0.1,0c-0.3,0.7-0.8,1.4-1.6,2c-1.1,0.8-2.1,1.1-2.8,1.1
		c-0.4,0.2-0.8,0.4-1.1,0.5c0,0,0,0,0,0c-0.3,1-0.8,1.9-1.6,2.6c-0.3,0.5-0.8,1-1.5,1.5c-0.9,0.7-1.9,1-2.6,1.1
		c-0.2,0.2-0.4,0.4-0.7,0.6c-0.2,0.2-0.4,0.3-0.5,0.4c-0.2,0.2-0.5,0.4-0.9,0.8c-0.5,0.4-0.7,0.5-0.9,0.7c-0.1,0.1-0.3,0.2-0.6,0.4
		c-0.9,0.7-1.4,1-2.4,1.3c-0.6,0.5-1.7,1.2-3.5,1.2c-0.8,0-1.3-0.1-1.7-0.2l-0.1,0c-0.6,0-0.9,0-1.2,0c-0.1,0-0.1,0-0.2,0
		c-0.5,0.2-1.3,0.4-2.3,0.4c-0.8,0-1.4-0.1-1.8-0.2l-1.8,0c-0.4,0-0.6,0-0.8,0c-0.3,0-0.5,0-1,0c-0.9,0-1.7-0.2-2.3-0.5
		c-0.3,0.1-0.6,0.1-1,0.1c-0.6,0.2-1.3,0.4-2.2,0.4c-1.2,0-2.1-0.4-2.7-0.7c-0.5-0.1-0.9-0.2-1.2-0.3c-0.4,0.1-0.9,0.1-1.5,0.1
		c-0.4,0-0.7,0-1,0c-0.6,0.3-1.5,0.6-2.6,0.6c-0.6,0-1.1-0.1-1.5-0.2c-0.7,0.3-1.4,0.5-2.1,0.5c-0.6,0-0.9,0-1.2,0
		c-0.1,0-0.3,0-0.6,0c-1,0-1.7-0.2-2.3-0.5c-0.4,0.1-0.8,0.1-1.3,0.1c-1,0-1.7-0.2-2.3-0.4c-0.2,0-0.3,0-0.4,0
		c-0.6,0.4-1.6,0.7-2.8,0.7c-0.6,0-0.9,0-1.2,0c-0.2,0-0.3,0-0.6,0c-0.3,0-0.4,0-0.6,0c-0.3,0-0.6,0-1.2,0c-0.9,0-1.4-0.1-1.8-0.2
		c-0.7,0-1.3-0.1-1.8-0.3c-0.4,0.1-0.9,0.2-1.5,0.3c-0.6,0.2-1.2,0.3-2.1,0.3c-0.8,0-1.5-0.2-2.1-0.4c-0.4,0.1-1,0.2-1.5,0.2
		c-1.2,0-2.1-0.3-2.7-0.7c-0.6,0.4-1.6,0.7-2.8,0.7c-1.2,0-2.2-0.4-2.8-0.8c0,0-0.1,0-0.1,0c-0.5,0.2-1.1,0.4-1.9,0.5
		c-0.5,0.2-1.3,0.5-2.4,0.5c-0.9,0-1.7-0.2-2.4-0.6c-0.8,0.2-1.9,0.1-2.6,0c-0.6,0.3-1.4,0.5-2.3,0.5c-0.8,0-1.5-0.2-2.1-0.4
		c-0.4,0.1-1,0.2-1.5,0.2c-0.4,0-0.6,0-0.8,0c-0.3,0-0.5,0-1.1,0c-1,0-1.7-0.2-2.3-0.4c-0.4,0-0.6,0-0.9-0.1c-0.1,0-0.2,0-0.5,0
		c-0.2,0-0.3,0-0.5,0c-0.3,0-0.6,0.1-1.1,0.1c-0.6,0.2-1.2,0.3-2.1,0.3c-0.5,0-0.8,0-1.1,0c-0.2,0-0.4,0-0.7,0c-0.3,0-0.4,0-0.5,0
		c-0.3,0-0.6,0.1-1.3,0.1c-0.9,0-1.7-0.2-2.3-0.5c-0.4,0.1-0.9,0.2-1.4,0.2c-0.3,0-0.4,0-0.6,0c-0.3,0-0.6,0-1,0
		c-0.5,0.1-1,0.3-1.6,0.3c-0.6,0.2-1.3,0.4-2.2,0.4c-1.2,0-2.1-0.4-2.8-0.7c-0.8,0.5-1.7,0.7-2.7,0.7c-1.1,0-1.9-0.3-2.6-0.7
		c-0.3,0-0.7,0.1-1,0.1c-0.8,0-1.4-0.1-1.9-0.3c-0.5,0.1-1.1,0.2-1.8,0.2c-0.7,0-1.2-0.1-1.7-0.2c-0.5,0.2-1.2,0.3-2,0.3
		c-0.8,0-1.4-0.1-2-0.3c-0.5,0.1-1,0.2-1.7,0.2c-0.6,0-0.9,0-1.2,0c-0.1,0-0.3,0-0.5,0c-0.5,0.1-1,0.2-1.7,0.2
		c-0.5,0.2-1.2,0.3-2.1,0.3c-0.8,0-1.4-0.1-1.9-0.2c-1.1,0-2-0.4-2.6-0.7c-0.7,0.4-1.6,0.7-2.7,0.7c-0.8,0-1.3-0.1-1.8-0.2
		c-0.5,0.1-1.1,0.2-1.8,0.2c-0.7,0-1.3-0.1-1.8-0.3c-0.5,0.2-1,0.3-1.6,0.3c-0.5,0.2-1.2,0.3-2.1,0.3c-0.7,0-1.1-0.1-1.5-0.1
		c-0.1,0-0.1,0-0.3,0c-0.9,0-1.6-0.2-2.1-0.3c-0.1,0-0.1,0-0.2,0c-0.3,0-0.6,0.1-1.3,0.1c-1,0-1.9-0.3-2.5-0.6
		c-0.7,0.4-1.7,0.9-3,0.9c-0.9,0-1.8-0.2-2.5-0.7c-0.3,0.1-0.7,0.1-1.1,0.1c-0.2,0-0.3,0-0.3,0c-0.3,0-0.5,0.1-0.9,0.1
		c-0.5,0.2-1.3,0.5-2.4,0.5c-1.1,0-1.9-0.3-2.6-0.6c-0.2,0-0.3,0-0.5-0.1c-0.6,0.3-1.3,0.5-2.2,0.5c-0.5,0.2-1.2,0.3-2,0.3
		c-1,0-1.7-0.2-2.3-0.4c-0.4,0-0.6,0-0.8-0.1c-0.1,0-0.1,0-0.2,0c-0.6,0.2-1.2,0.3-2.1,0.3c-0.6,0-0.8,0-1.1,0c-0.2,0-0.4,0-0.7,0
		c-0.7,0-1.3-0.1-1.8-0.3c-0.5,0.2-1.1,0.3-1.8,0.3c-0.7,0-1.1,0-1.5-0.1c-0.1,0-0.2,0-0.3,0c-0.8,0-1.6-0.2-2.1-0.4
		c-0.3,0.1-0.6,0.1-0.9,0.2c-0.5,0.2-1.3,0.5-2.4,0.5c-0.6,0-1,0-1.4-0.1c-0.1,0-0.2,0-0.4,0c-1.2,0-2.3-0.4-3.2-1.1
		c-0.1,0-0.2,0-0.4,0c-0.2,0-0.4,0.1-0.6,0.1c-0.5,0.4-1.2,0.7-2,0.9c-0.1,0.5-0.3,1-0.5,1.4c0.1,0.3,0.1,0.7,0.1,1.2
		c0,0.5,0,0.8-0.1,1.2c0.3,0.6,0.6,1.4,0.6,2.5c0,1.2-0.4,2.1-0.7,2.7c0,0.4-0.1,0.7-0.2,1c0.1,0.5,0.2,1,0.2,1.7
		c0,0.9-0.1,1.5-0.3,2l0,1.2c0.2,0.6,0.4,1.3,0.4,2.2c0,0.3,0,0.4,0,0.5c0,0.3,0.1,0.6,0.1,1.3c0,0.9-0.2,1.6-0.4,2.2
		c0.1,0.4,0.2,0.9,0.2,1.4c0,0.4,0,0.8-0.1,1.1c0.3,0.6,0.6,1.5,0.6,2.5c0,0.2,0,0.3,0,0.4c0,0.4,0.1,0.7,0.1,1.4
		c0,1-0.3,1.9-0.8,2.7c0,0.3,0.1,0.6,0.1,0.9c0.1,0.5,0.2,1,0.2,1.8c0,0.7,0,1.1-0.1,1.4c0,0,0,0,0,0.1c0.2,0.6,0.4,1.2,0.4,2.1
		c0,0.9-0.1,1.5-0.3,2c0,0.8-0.2,1.4-0.3,1.8c0.1,0.4,0.1,0.8,0.2,1.3c0.2,0.5,0.3,1.2,0.3,2.1c0,0.6,0,0.8,0,1.1c0,0.2,0,0.3,0,0.7
		c0,1-0.2,1.8-0.5,2.4c0,0.3,0.1,0.7,0.1,1.3c0.1,0.5,0.2,1,0.2,1.8c0,0.2,0,0.3,0,0.4c0,0.2,0.1,0.5,0.1,0.8
		c0.3,0.6,0.5,1.4,0.5,2.4c0,0.6-0.1,1.2-0.2,1.6c0.3,0.6,0.4,1.3,0.4,2c0,0.9-0.2,1.8-0.7,2.6c0,0.1,0,0.2,0,0.3
		c0.3,0.6,0.5,1.4,0.5,2.5c0,0.7,0,1.1-0.1,1.5c0,0.1,0,0.2,0,0.3c0,0.7-0.1,1.2-0.2,1.7c0.2,0.5,0.3,1.2,0.3,2
		c0,0.8-0.1,1.4-0.3,1.9c0.1,0.5,0.2,1,0.2,1.7c0,1-0.2,1.8-0.4,2.3c0,0,0,0,0,0c0,0.3,0.1,0.7,0.1,1.3c0,0.7-0.1,1.3-0.3,1.8
		c0.1,0.3,0.2,0.8,0.3,1.2c0.2,0.5,0.5,1.3,0.5,2.4c0,0.6-0.1,1.1-0.2,1.5c0.2,0.6,0.4,1.3,0.4,2.1c0,1-0.3,1.9-0.6,2.5
		c0.1,0.3,0.1,0.7,0.1,1.1c0,0.5-0.1,1-0.2,1.5c0.3,0.7,0.5,1.4,0.5,2.2c0,0.9-0.1,1.5-0.3,2c0,0.8-0.2,1.5-0.4,2
		c0,0.2,0.1,0.4,0.1,0.7c0.3,0.7,0.6,1.5,0.6,2.6c0,0.8-0.1,1.4-0.2,1.8c0,0.7-0.1,1.2-0.1,1.5c0,0.1,0,0.2,0,0.3
		c0,0.5-0.1,0.9-0.2,1.3c0.4,0.7,0.6,1.5,0.6,2.3c0,0.9-0.2,1.6-0.3,2.2c-0.1,1-0.3,1.7-0.7,2.3c0,0.1,0,0.2,0,0.4
		c0.3,0.6,0.5,1.4,0.5,2.5c0,0.3,0,0.4,0,0.5c0,0.3,0.1,0.6,0.1,1.3c0,0.6-0.1,1.2-0.2,1.6c0.2,0.6,0.4,1.2,0.4,2
		c0,0.6-0.1,1.1-0.2,1.6c0.2,0.6,0.4,1.2,0.4,2c0,0.2,0,0.3,0,0.4c0,0.4,0.1,0.8,0.1,1.4c0,0.8-0.1,1.4-0.2,1.9
		c0,0.6-0.1,1.1-0.2,1.5c0.2,0.6,0.4,1.2,0.4,2c0,1.3-0.4,2.3-0.8,2.9c0,0.1,0,0.3-0.1,0.4c0.1,0.4,0.3,0.9,0.3,1.4
		c0.3,0.6,0.6,1.4,0.6,2.5c0,1.1-0.3,2-0.7,2.7c0.4,0.7,0.8,1.6,0.8,2.8l0,1.8c0,0.8-0.2,1.6-0.5,2.3c0.1,0.3,0.1,0.6,0.2,1
		c0.2,0.6,0.4,1.3,0.4,2.2c0,0.9-0.2,1.8-0.7,2.6c0.1,0.3,0.1,0.7,0.1,1c0,0.6-0.1,1.2-0.2,1.7c0.2,0.5,0.4,1.2,0.4,2
		c0,1.2-0.4,2.1-0.7,2.8c0,0.1,0,0.3,0,0.4c0.2,0.5,0.4,1.3,0.4,2.3c0,0.1,0,0.1,0,0.1l0,0.1c0.1,0.4,0.1,0.9,0.1,1.6
		c0,0.8-0.1,1.4-0.3,1.9c0,0.2,0,0.3,0,0.4c0,0.1,0,0.1,0,0.2c0.4,0.7,0.9,1.6,0.9,2.9c0,1.3-0.5,2.3-0.9,3v0.6c0,0.9-0.1,1.5-0.3,2
		c0,0.3,0,0.4,0,0.6c0,0.1,0,0.2,0,0.3c0.3,0.6,0.6,1.4,0.6,2.5c0.1,0.5,0.2,1.1,0.2,1.9c0,1.1-0.2,1.8-0.5,2.3c0,0.2,0,0.4,0,0.6
		c0,0.2,0,0.4,0,0.7c0,0.2,0,0.2,0,0.3c0.1,0.4,0.1,0.8,0.1,1.5c0,0.8-0.1,1.4-0.3,1.9c0.1,0.5,0.2,1,0.2,1.8c0,0.6,0,0.9,0,1.2
		c0.3,0.6,0.5,1.4,0.5,2.5c0,0.8-0.1,1.3-0.2,1.7c0.2,0.5,0.3,1.1,0.3,1.9c0,0.9-0.1,1.5-0.3,2c0,0.7-0.2,1.3-0.4,1.8
		c0.1,0.5,0.2,1,0.2,1.6c0,0.8-0.1,1.4-0.2,1.8c0,0,0,0,0,0c0,0.3,0,0.7-0.1,0.9c0.5,0.8,0.8,1.7,0.8,2.7c0,1-0.2,1.7-0.4,2.2
		c0,0.4-0.1,0.8-0.2,1.2c0.2,0.6,0.4,1.3,0.4,2.1c0,0.9-0.1,1.5-0.3,2c0,0.6-0.1,1-0.1,1.4c0,0.1,0,0.1,0,0.2c0,0.4,0,0.6,0,0.8
		c0,0.3,0,0.5,0,1c0,0.5,0,0.9-0.1,1.2c0.4,0.7,0.6,1.5,0.6,2.4c0,0.6,0,0.8,0,1.1c0,0.2,0,0.4,0,0.7c0,0.6-0.1,1.2-0.3,1.7
		c0.2,0.5,0.4,1.2,0.4,2c0,0.6-0.1,1.2-0.3,1.7c0.2,0.6,0.4,1.2,0.4,1.9c0,0.7-0.1,1.4-0.4,2c0.2,0.5,0.3,1,0.3,1.7
		c0,0.8-0.1,1.4-0.3,1.9c0.1,0.5,0.2,1,0.2,1.7c0,0.8-0.2,1.6-0.5,2.3c0.1,0.4,0.2,0.9,0.2,1.4c0,0.8-0.1,1.4-0.3,1.9
		c0.1,0.3,0.2,0.6,0.2,1c0.3,0.6,0.6,1.5,0.6,2.6l0,1.8c0,0.4,0,0.5,0,0.7c0,0.3,0,0.5,0,1.1c0,1.1-0.3,1.9-0.5,2.4
		c0,0.3-0.1,0.6-0.1,0.9c0.3,0.6,0.5,1.3,0.5,2.2c0,0.8-0.1,1.4-0.3,1.9c0.1,0.5,0.2,1,0.2,1.7c0,0.9-0.1,1.5-0.3,2.1
		c0,1-0.3,1.8-0.6,2.3c0.4,0.7,0.9,1.6,0.9,2.9c0,0.5,0,0.8,0,1.1c0,0.2,0,0.4,0,0.7c0,0.2,0,0.3,0,0.4c0,0.4,0.1,0.7,0.1,1.4
		c0,0.9-0.2,1.6-0.4,2.1c0.1,0.4,0.1,0.9,0.1,1.5c0,0.1,0,0.1,0,0.3c0.1,0.4,0.1,0.8,0.1,1.6c0,1.4-0.5,2.4-1,3c0,0.1,0,0.2,0,0.3
		c0.2,0.6,0.3,1.2,0.3,2.1c0,0.4,0,0.7,0,0.9c0.4,0.6,0.7,1.6,0.7,2.7c0,0.6-0.1,1.2-0.2,1.7c0.2,0.5,0.4,1.2,0.4,2
		c0,0.8-0.2,1.5-0.5,2.2c0.1,0.4,0.2,0.9,0.2,1.4c0,0.8-0.1,1.2-0.1,1.6l0,0.2c0,0.6-0.1,1.2-0.2,1.6c0.2,0.5,0.3,1.2,0.3,2
		c0,1.2-0.3,2.1-0.6,2.7c0,0.1,0,0.1,0,0.2c0.3,0.5,0.6,1.2,0.6,2.1c0.2,0.5,0.4,1.3,0.4,2.3c0,1.4-0.5,2.5-1.1,3.2
		c0,0.1,0,0.3,0,0.5c0,0.4,0,0.6,0,0.8c0,0.2,0,0.3,0,0.5c0.2,0.6,0.4,1.3,0.4,2.3c0,1-0.3,1.8-0.5,2.4c0,0.3,0.1,0.6,0.1,1
		c0.2,0.5,0.3,1.2,0.3,2.1c0,0.7,0,1-0.1,1.3c0,0.1,0,0.3,0,0.5c0,0.9-0.2,1.6-0.4,2.1c0.1,0.4,0.1,0.9,0.1,1.5c0,0.1,0,0.1,0,0.3
		c0.1,0.4,0.1,0.8,0.1,1.6c0,0.4,0,0.7-0.1,1c0.3,0.5,0.5,1,0.6,1.7c0.7,0.1,1.3,0.4,1.8,0.7c0.7-0.4,1.6-0.7,2.7-0.7
		c0.8,0,1.5,0.2,2.1,0.4c0.5-0.1,1-0.2,1.6-0.2c1.1,0,1.9,0.3,2.4,0.5c0.3,0,0.6,0.1,0.8,0.1c0.6-0.2,1.3-0.5,2.3-0.5
		c0.4,0,0.8,0,1.1,0.1c0.8-0.4,1.6-0.6,2.5-0.6c1.4,0,2.4,0.5,3.1,1c0,0,0,0,0,0c0.1,0,0.3,0,0.5,0c0.8,0,1.4,0.1,1.9,0.3
		c0,0,0.1,0,0.1,0c1-0.9,2.1-1.3,3.4-1.3c0.9,0,1.5,0.1,2.1,0.3c0.2,0,0.3,0,0.5,0c0.3,0,0.6,0,1.1,0c0.9,0,1.7,0.2,2.2,0.4
		c0.8-0.2,1.9-0.2,2.7,0c0.7-0.4,1.5-0.6,2.3-0.6c0.5-0.1,1-0.2,1.8-0.2c0.9,0,1.7,0.2,2.4,0.6c0.4-0.1,0.8-0.1,1.2-0.1
		c1.1,0,1.9,0.3,2.6,0.6c0.4,0,0.8,0.1,1.1,0.2c0.3-0.1,0.5-0.1,0.8-0.1c0.6-0.4,1.5-0.7,2.6-0.8c0.6-0.2,1.2-0.3,2-0.3
		c0.9,0,1.6,0.2,2.2,0.5c0.4-0.1,0.9-0.2,1.4-0.2c0.7,0,1.1,0,1.5,0.1c0.1,0,0.2,0,0.4,0c0.2,0,0.4,0,0.5,0c0.4,0,0.7-0.1,1.4-0.1
		c1.1,0,1.8,0.2,2.3,0.4c0.2,0,0.3,0,0.4,0c0.8-0.5,1.7-0.8,2.7-0.8c0.6,0,0.9,0,1.2,0c0.2,0,0.3,0,0.6,0c0.8,0,1.5,0.2,2,0.4
		c0.5-0.1,1-0.2,1.6-0.2c0.9,0,1.6,0.2,2.2,0.4c0.2,0,0.3,0,0.5,0c0.2,0,0.5,0,1,0c0.9,0,1.6,0.2,2.1,0.3c0.2,0,0.3,0,0.5,0
		c0.1,0,0.1,0,0.2,0c0.6-0.3,1.5-0.7,2.7-0.7c0.2,0,0.4,0,0.5,0c0.4,0,0.7-0.1,1.3-0.1c1.2,0,2.1,0.3,2.7,0.7
		c0.6-0.4,1.5-0.7,2.7-0.7c0.1,0,0.1,0,0.2,0c0.4-0.1,0.8-0.1,1.6-0.1c1,0,1.8,0.2,2.3,0.4l1.3,0c0.6,0,1.1,0.1,1.5,0.2
		c0.6-0.3,1.3-0.4,2.2-0.4c0.8,0,1.6,0.2,2.1,0.4c0.4-0.1,0.9-0.2,1.5-0.2c0.3,0,0.5,0,0.7,0c0.3,0,0.6,0,1.1,0c0.4,0,0.6,0,0.8,0
		c0.2,0,0.5,0,1,0c0.9,0,1.6,0.2,2.1,0.3c0.6,0,1,0.1,1.3,0.1l0.1,0c0,0,0.1,0,0.1,0c0.2,0,0.4,0,0.5,0c0.1,0,0.3,0,0.5,0
		c0.6-0.3,1.5-0.7,2.7-0.7c0.7,0,1.3,0.1,1.9,0.4c0.5-0.2,1.1-0.3,1.7-0.3c0.6,0,1.1,0.1,1.6,0.2c0.6-0.2,1.3-0.4,2.1-0.4
		c0.6,0,1.2,0.1,1.7,0.3c0.6-0.3,1.2-0.4,1.9-0.4c1.2,0,2.1,0.4,2.8,0.8c0.3,0,0.6,0,0.9,0c0.7,0,1.2,0.1,1.6,0.1l0.2,0
		c0.2,0,0.2,0,0.3,0c0.4-0.1,0.8-0.1,1.4-0.1c0.5-0.1,1.1-0.2,1.9-0.2c0.9,0,1.6,0.2,2.2,0.4c0.1,0,0.2-0.1,0.4-0.1
		c0.6-0.4,1.6-0.8,2.9-0.8c1,0,1.9,0.3,2.8,0.8c0.8-0.5,1.7-0.8,2.7-0.8c1.1,0,1.9,0.2,2.3,0.4c0.3,0,0.6,0.1,0.8,0.1
		c0.7-0.4,1.5-0.6,2.3-0.6c0.9,0,1.6,0.2,2.2,0.4c0.2,0,0.3,0,0.4,0c0.3,0,0.5,0,1.1,0c0.7,0,1.3,0.1,1.8,0.2
		c0.5-0.2,1.1-0.3,1.9-0.3c0.5,0,1,0.1,1.5,0.2c0.6-0.3,1.3-0.5,2.2-0.5c0.9,0,1.6,0.2,2.1,0.4c0.4-0.1,0.9-0.2,1.5-0.2
		c0.9,0,1.5,0.1,2,0.3c0.5,0,0.7,0,1,0c0.2,0,0.4,0,0.7,0c0.2,0,0.3,0,0.3,0c0.4-0.1,0.8-0.1,1.5-0.1c0.5,0,0.7,0,1,0
		c0.1,0,0.2,0,0.4,0c0.5-0.2,1.3-0.4,2.3-0.4c1.2,0,2.1,0.4,2.7,0.7c0.1,0,0.2,0,0.3,0c0.6-0.3,1.4-0.6,2.5-0.6
		c1.1,0,1.9,0.2,2.4,0.5c0.6,0,1.1,0.1,1.5,0.3c0.7,0,1.2,0.1,1.7,0.2c0.5-0.1,1-0.2,1.7-0.2c0.5-0.1,1.1-0.2,1.9-0.2
		c0.6,0,0.9,0,1.1,0c0.2,0,0.3,0,0.7,0c0.3,0,0.5,0,0.6,0c0.3,0,0.6,0,1.2,0c0.3,0,0.5,0,0.6,0c0.3,0,0.6,0,1.2,0
		c1,0,1.7,0.2,2.3,0.5c0.1,0,0.2,0,0.3,0c0.6-0.4,1.6-0.8,2.9-0.8c0.7,0,1.3,0.1,1.8,0.3c0.5-0.1,1.1-0.3,1.8-0.3
		c0.8,0,1.4,0.1,1.9,0.3c0.5-0.2,1.1-0.3,1.7-0.3c0.9,0,1.6,0.2,2.2,0.4c0.3-0.1,0.5-0.1,0.9-0.1c0.5-0.2,1.3-0.5,2.4-0.5
		c0.9,0,1.6,0.2,2.1,0.3c0.5,0,1,0.1,1.4,0.2c0.5-0.2,1.2-0.4,2-0.4c0.9,0,1.6,0.2,2.1,0.4c0.2,0,0.4-0.1,0.6-0.1
		c0.6-0.3,1.5-0.7,2.8-0.7c1.1,0,2,0.3,2.9,0.9c0.6-0.4,1.5-0.6,2.6-0.6c0.4,0,0.6,0,0.8,0c0.3,0,0.5,0,1,0c0.9,0,1.6,0.2,2.1,0.3
		c0.4,0,0.6,0,0.8,0c0.1,0,0.3,0,0.5,0c0.5-0.2,1.2-0.3,2-0.3c1,0,1.9,0.3,2.5,0.6c0.9-0.6,1.9-0.9,3-0.9c0.9,0,1.5,0.1,2,0.3
		c0.8,0,1.4,0.2,1.9,0.4c0.4-0.1,0.9-0.2,1.5-0.2c1.1,0,1.9,0.3,2.5,0.6c0.3,0,0.6,0,1.1,0c0.2,0,0.4,0,0.6,0
		c0.9-0.7,1.9-1.1,3.1-1.1c0.7,0,1.2,0.1,1.6,0.1c0.1,0,0.1,0,0.3,0l0.1,0c0.4-0.1,0.9-0.2,1.7-0.2c1.1,0,1.9,0.3,2.5,0.6
		c0.3,0,0.6-0.1,1.1-0.1c0.2,0,0.4,0,0.5,0c0.2,0,0.5,0,0.9-0.1c0.6-0.2,1.3-0.4,2.3-0.4c1,0,1.9,0.2,2.6,0.7
		c0.9-0.6,1.8-0.8,2.8-0.8c1.1,0,1.9,0.3,2.5,0.5c0.4,0,0.7,0.1,1,0.1l0.2,0c0.5-0.1,1-0.2,1.8-0.2c0.3,0,0.5,0,0.7,0
		c0.2,0,0.4,0,0.6,0c0.5-0.2,1.3-0.5,2.3-0.5c0.8,0,1.5,0.1,2,0.3c0.5-0.1,1-0.2,1.6-0.2c0.8,0,1.4,0.1,1.9,0.2c0.2,0,0.3,0,0.5,0
		c0.3,0,0.6,0,1.2,0c1,0,1.8,0.2,2.4,0.5c0,0,0.1,0,0.1,0c0.3,0,0.6,0,1.1,0c0.2,0,0.4,0,0.5,0c0.3,0,0.7-0.1,1.3-0.1
		c0.8,0,1.5,0.2,2,0.4c0.1,0,0.3-0.1,0.4-0.1c0.7-0.4,1.6-0.9,3-0.9c0.6,0,1.2,0.1,1.7,0.3c0.6-0.3,1.3-0.4,1.9-0.4
		c0.8,0,1.3,0.1,1.8,0.2c0.8,0,1.2,0.1,1.6,0.1c0.1,0,0.1,0,0.2,0c0.5-0.2,1.1-0.3,2-0.3c1,0,2,0.3,2.8,0.9c0.8-0.5,1.7-0.7,2.6-0.7
		c0.7,0,1,0,1.3,0.1c0.1,0,0.2,0,0.5,0c0.1,0,0.1,0,0.3,0c0.4-0.1,0.8-0.1,1.6-0.1c1.3,0,2.3,0.5,3,0.9c0.3,0,0.5,0.1,0.7,0.1
		c0.2,0,0.4,0,0.6,0c0.9-0.7,1.9-1,3-1c1.2,0,2.1,0.4,2.7,0.7c0.4,0.1,0.8,0.2,1.2,0.3c0.4-0.1,0.9-0.1,1.6-0.1c0.9,0,1.5,0.1,2,0.3
		c0.1,0,0.2,0,0.3,0c1-0.8,2-1.1,3.2-1.1c1.1,0,1.9,0.3,2.4,0.5c0.3,0,0.5,0.1,0.7,0.1c0.6-0.3,1.4-0.5,2.3-0.5l0.1,0
		c0.4-0.1,0.9-0.2,1.7-0.2c0.9,0,1.6,0.2,2.2,0.4c0.4-0.1,0.9-0.1,1.5-0.1c0.8,0,1.4,0.1,1.9,0.2l1.8,0c0.5,0,1,0.1,1.4,0.1
		c0.6-0.3,1.3-0.5,2.3-0.5c0.9,0,1.6,0.2,2.2,0.4c0.4-0.1,0.9-0.2,1.5-0.2c0.2,0,0.3,0,0.3,0c0.4-0.1,0.8-0.1,1.5-0.1
		c0.7,0,1.3,0.1,1.9,0.3c0.5-0.2,1.1-0.3,1.8-0.3c0.7,0,1.2,0.1,1.6,0.1l0.1,0c0,0,0.1,0,0.1,0c0.5,0,0.7,0,1,0c0.2,0,0.4,0,0.8,0
		c0.6,0,0.9,0,1.1,0c0.2,0,0.3,0,0.7,0c0.9,0,1.6,0.2,2.1,0.3c0.8,0,1.5,0.2,1.9,0.4c0.4-0.1,0.8-0.1,1.4-0.1c0.6,0,1,0,1.3,0.1
		c0.5-0.2,1.3-0.5,2.3-0.5c0.7,0,1.3,0.1,1.8,0.3c0.5-0.2,1.1-0.3,1.8-0.3c0.5-0.1,1.1-0.2,1.9-0.2c0.5,0,0.9,0.1,1.3,0.2
		c0.7-0.4,1.5-0.5,2.3-0.5c0.6,0,1,0,1.3,0.1c0.1,0,0.3,0,0.5,0c0.1,0,0.1,0,0.3,0c0.4-0.1,0.8-0.1,1.6-0.1c0.8,0,1.4,0.1,1.9,0.4
		c0.5-0.2,1.1-0.3,1.7-0.3c1,0,2,0.3,2.8,0.9c0.2,0,0.5,0,0.8,0c0.5-0.1,1.1-0.2,1.9-0.2c0.4,0,0.6,0,0.8,0c0.3,0,0.5,0,1,0
		c0.8,0,1.3,0.1,1.8,0.2c0.3-0.1,0.6-0.1,0.9-0.2c0.6-0.3,1.5-0.7,2.7-0.7c0.8,0,1.4,0.1,1.9,0.2c0.7,0,1.1,0.1,1.4,0.1
		c0.1,0,0.2,0,0.3,0c0.5,0,0.8,0,1,0c0.2,0,0.4,0,0.8,0c0.7,0,1.1,0,1.5,0.1c0.1,0,0.2,0,0.3,0c0.7,0,1.2,0.1,1.6,0.1
		c0.1,0,0.1,0,0.3,0c0.5,0,1,0.1,1.4,0.2c0.6-0.3,1.3-0.5,2.2-0.5c0.5-0.1,1-0.2,1.8-0.2c1.1,0,2,0.3,2.6,0.6c0.1,0,0.2,0,0.2,0
		c0.2,0,0.4,0,0.8,0l0.1,0c0.3-0.1,0.7-0.1,1.2-0.1c0.5-0.2,1.3-0.5,2.4-0.5c0.8,0,1.4,0.1,1.9,0.2c0.5-0.1,1-0.2,1.8-0.2
		c1.1,0,2,0.3,2.7,0.7c0.5,0,1.3-0.1,1.9,0c0.8-0.6,1.8-0.8,2.8-0.8c0.8,0,1.5,0.2,2.2,0.5c0.4-0.1,0.9-0.2,1.5-0.2
		c0.7,0,1.3,0.1,1.8,0.3c0.5-0.2,1.2-0.3,1.9-0.3c1,0,1.7,0.2,2.3,0.4c0.4,0,0.8,0.1,1.1,0.1c0.5-0.2,1.2-0.4,2.1-0.4
		c0.8,0,1.3,0.1,1.7,0.2l0.2,0c0.9,0,1.6,0.2,2.2,0.4c0.2,0,0.4,0,0.6,0c0.6-0.3,1.3-0.6,2.2-0.7c0-0.1,0-0.1,0-0.2
		c-0.3-0.6-0.6-1.5-0.6-2.5c0-0.9,0.2-1.6,0.3-2.1c0-0.5,0-0.7,0-1c0-0.1,0-0.3,0-0.6c0-0.6,0.1-1,0.1-1.4c-0.2-0.6-0.4-1.3-0.4-2.2
		c0-0.6,0.1-1,0.2-1.5c-0.3-0.6-0.4-1.3-0.4-2.2c0-0.7,0.1-1.4,0.4-2c-0.2-0.5-0.3-1.1-0.3-1.7c0-0.3,0-0.4,0-0.5
		c0-0.3-0.1-0.6-0.1-1.3c0-0.7,0.1-1.4,0.4-2c-0.1-0.5-0.2-1-0.2-1.6c0-0.7,0.1-1.1,0.1-1.5c0-0.1,0-0.1,0-0.3c0-0.5,0.1-1,0.2-1.4
		c-0.4-0.7-0.5-1.5-0.5-2.3c0-0.7,0.1-1.3,0.3-1.9c-0.2-0.5-0.3-1.1-0.3-1.8c0-1.2,0.3-2.1,0.6-2.6c0.1-0.5,0.2-0.9,0.3-1.3
		c0-0.6,0.1-1.1,0.2-1.5c-0.1-0.5-0.3-1.1-0.3-1.9c0-0.4,0-0.7,0-1c-0.3-0.6-0.7-1.5-0.7-2.6c0-0.6,0.1-1.1,0.2-1.6
		c-0.3-0.6-0.4-1.3-0.4-2.1c0-1.2,0.4-2.3,1.1-3.2c0-0.1,0-0.2,0-0.4c-0.1-0.4-0.2-0.9-0.2-1.6c-0.2-0.5-0.3-1.2-0.3-2.1
		c0-0.9,0.2-1.6,0.4-2.2c0-0.4,0-0.7,0.1-1c0-0.1,0-0.2,0-0.5c0-0.2,0-0.3,0-0.5c0-0.2,0-0.4-0.1-0.7c-0.2-0.5-0.5-1.1-0.5-1.9
		c-0.2-0.5-0.5-1.3-0.5-2.4c0-1.2,0.4-2.1,0.8-2.7c0-0.1,0-0.3,0-0.4c-0.2-0.6-0.4-1.3-0.4-2.3c0-0.3,0-0.5,0-0.7c0-0.3,0-0.6,0-1.1
		c0-0.2,0-0.3,0-0.4c0-0.4-0.1-0.7-0.1-1.4c0-0.2,0-0.4,0-0.5c0-0.4-0.1-0.7-0.1-1.3c0-1.1,0.3-1.9,0.5-2.4c0-0.3,0.1-0.5,0.1-0.8
		c-0.4-0.7-0.5-1.5-0.5-2.3c0-1.3,0.5-2.3,0.9-3c-0.3-0.6-0.5-1.4-0.5-2.4c0-0.4,0-0.8,0.1-1.2c-0.4-0.8-0.6-1.6-0.6-2.5
		c0-0.8,0.2-1.5,0.5-2.2c-0.1-0.4-0.2-0.9-0.2-1.4c0-0.4,0-0.6,0-0.8c0-0.3,0-0.5,0-1c0-0.7,0.1-1.3,0.3-1.8
		c-0.2-0.5-0.3-1.1-0.3-1.9c0-0.7,0.1-1.2,0.3-1.7c-0.2-0.5-0.4-1.2-0.4-1.9c0-1.2,0.3-2.1,0.7-2.7c-0.4-0.7-0.8-1.6-0.8-2.8
		c0-1,0.3-1.8,0.6-2.4c-0.1-0.4-0.1-0.8-0.1-1.2c0-0.7,0.1-1.4,0.3-1.9c-0.2-0.5-0.3-1.1-0.3-1.7c0-1.1,0.3-2,0.6-2.6
		c0-0.3,0-0.6,0-1c0-0.2,0-0.3,0-0.4c0-0.4-0.1-0.8-0.1-1.4c0-0.6,0-0.9,0.1-1.3c0-0.1,0-0.3,0-0.6c0-0.3,0-0.6,0-0.7
		c-0.4-0.7-0.8-1.6-0.8-2.9c0-0.6,0.1-1.2,0.2-1.6c-0.2-0.5-0.3-1.2-0.3-2c0-0.7,0.1-1.3,0.3-1.8c-0.2-0.5-0.3-1.1-0.3-1.8
		c0-1.2,0.4-2.1,0.7-2.7c0-0.2,0.1-0.3,0.1-0.5c-0.3-0.6-0.5-1.3-0.5-2.3c0-0.9,0.2-1.7,0.5-2.3c-0.1-0.4-0.1-0.8-0.1-1.4l0-0.1
		c-0.1-0.5-0.2-1-0.2-1.7c0-0.5,0-0.8,0-1c0-0.2,0-0.4,0-0.7c-0.2-0.5-0.3-1.1-0.3-2c0-1.2,0.4-2.1,0.7-2.7c0-0.2,0-0.4,0-0.6
		c-0.2-0.5-0.3-1.2-0.3-2.1c0-0.8,0.1-1.4,0.2-1.8c0,0,0,0,0,0c0-0.6,0-0.9,0-1.1c0,0,0,0,0,0c-0.3-0.6-0.5-1.4-0.5-2.5
		c-0.1-0.5-0.2-1-0.2-1.8c0-0.6,0.1-1.1,0.2-1.5c-0.2-0.6-0.4-1.3-0.4-2.1c0-1.2,0.4-2.1,0.7-2.7c-0.5-0.8-0.8-1.7-0.8-2.7
		c0-0.6,0-0.9,0-1.1c0-0.2,0-0.3,0-0.7c0-0.9,0.1-1.5,0.3-2c0-0.6,0.1-1.1,0.3-1.5c-0.2-0.5-0.3-1.2-0.3-1.9c0-0.7,0.1-1.1,0.1-1.5
		c0-0.1,0-0.1,0-0.3c0-0.6,0.1-1.1,0.2-1.5c-0.2-0.5-0.4-1.2-0.4-2.1c0-1.1,0.3-1.9,0.6-2.6c0-0.3,0.1-0.5,0.1-0.7
		c-0.3-0.6-0.4-1.3-0.4-2.2c0-1.1,0.3-1.9,0.6-2.6c0-0.3-0.1-0.7-0.1-1.1c0-0.9,0.1-1.5,0.3-2c0-0.1,0-0.2,0-0.3
		c0-0.3,0-0.5-0.1-0.9c-0.2-0.5-0.3-1.2-0.3-2c-0.1-0.5-0.3-1.1-0.3-2c0-0.7,0.1-1.2,0.2-1.7c-0.2-0.5-0.3-1.1-0.3-1.9
		c-0.1-0.5-0.2-0.9-0.2-1.6c-0.2-0.6-0.3-1.2-0.3-2.1c0-1.1,0.3-1.9,0.6-2.5c0-0.3-0.1-0.7-0.1-1.2c0-0.6,0-0.9,0-1.2
		c0-0.2,0-0.3,0-0.7c0-0.7,0.1-1.2,0.2-1.7c-0.2-0.5-0.3-1.2-0.3-2c0-1.1,0.3-1.9,0.6-2.5c0-0.3-0.1-0.7-0.1-1.1
		c0-0.5,0-0.8,0.1-1.2c-0.3-0.6-0.6-1.4-0.6-2.5c0-0.9,0.2-1.6,0.4-2.2c0-0.1,0-0.2-0.1-0.3c-0.4-0.7-0.9-1.7-0.9-3
		c0-0.9,0.2-1.6,0.4-2.2c0-0.5,0.1-0.8,0.1-1.1c0-0.1,0-0.2,0-0.4c0,0,0,0,0,0l0,0c-0.1-0.5-0.2-1-0.2-1.8c0-1.2,0.3-2.1,0.6-2.6
		c0.1-0.6,0.2-1.1,0.4-1.5v-1.2c-0.1-0.2-0.1-0.5-0.2-0.8c-0.4-0.7-0.9-1.7-0.9-3c0-1,0.2-1.8,0.5-2.4c0-0.3-0.1-0.6-0.1-0.9
		c-0.2-0.6-0.4-1.2-0.4-2.2c0-1.2,0.4-2.2,0.8-2.9c-0.3-0.5-0.6-1.3-0.6-2.2c-0.2-0.6-0.4-1.3-0.4-2.3c0-0.9,0.1-1.5,0.3-2.1
		c0-0.5,0.1-1,0.2-1.4c-0.2-0.6-0.4-1.2-0.4-2c0-0.8,0.2-1.5,0.4-2c-0.1-0.5-0.2-1-0.2-1.6c0-0.3,0-0.5,0-0.7c0-0.3,0-0.6,0-1.1
		c0-0.8,0.1-1.5,0.3-2c-0.1-0.5-0.2-1-0.2-1.7c0-0.9,0.2-1.7,0.5-2.3c-0.1-0.3-0.1-0.6-0.1-0.9c-0.2-0.6-0.4-1.3-0.4-2.3
		c0-0.5,0-0.8,0-1c0-0.2,0-0.4,0-0.8c0-0.6,0.1-1.1,0.2-1.6c-0.2-0.6-0.4-1.2-0.4-2.1c0-0.8,0.1-1.4,0.2-1.8c0,0,0,0,0,0
		c0-1.1,0.2-1.8,0.5-2.5c0,0,0-0.1,0-0.1c0-0.2,0-0.5,0-0.9c-0.1-0.5-0.3-1.1-0.3-2c0-0.7,0-1,0.1-1.3c0-0.1,0-0.2,0-0.5
		c0-0.7,0.1-1.2,0.2-1.6c-0.2-0.5-0.3-1.2-0.3-2c0-0.6,0.1-1.1,0.2-1.5c-0.2-0.6-0.4-1.3-0.4-2.1c0-1.1,0.3-1.9,0.5-2.5
		c0-0.5,0.1-0.9,0.2-1.3c0-0.2,0-0.4,0-0.5c0-0.3,0-0.6,0-1.2c0-0.5,0-0.8,0.1-1.1c-0.3-0.6-0.6-1.5-0.6-2.5c0-0.2,0-0.2,0-0.3
		c-0.1-0.4-0.1-0.8-0.1-1.5c0-1.1,0.3-2,0.7-2.7c0-0.1,0-0.2,0-0.2c-0.3-0.6-0.5-1.3-0.6-2.2c-0.2-0.6-0.3-1.2-0.3-2.1
		c0-0.5,0-0.8,0-1.1c0-0.2,0-0.4,0-0.7c0-0.8,0.1-1.5,0.3-2c-0.1-0.5-0.2-1-0.2-1.7c0-1.1,0.3-1.9,0.5-2.4c0-0.5,0.1-0.9,0.2-1.2
		c0-0.7,0.1-1.3,0.2-1.7c-0.1-0.5-0.3-1.1-0.3-1.9c0-0.1,0-0.1,0-0.1l0-0.1c-0.1-0.4-0.1-0.9-0.1-1.6c0-0.6,0-1,0.1-1.3
		c-0.2-0.4-0.4-1-0.4-1.6c-0.3,0-0.6-0.1-0.9-0.2c-0.5,0.2-1.2,0.4-2,0.4l-0.1,0c-0.5,0.1-1,0.2-1.7,0.2c-0.8,0-1.4-0.1-1.9-0.2
		c-0.7,0-1.3-0.1-1.8-0.3c-0.5,0.2-1.1,0.3-1.8,0.3c-1.2,0-2.1-0.3-2.7-0.7c-0.2,0-0.5,0-0.8,0c-0.3,0.1-0.6,0.2-1,0.2
		c-0.6,0.3-1.5,0.7-2.8,0.7c-1.2,0-2.2-0.4-2.8-0.8c-0.2,0-0.4,0-0.8,0c-0.1,0-0.1,0-0.1,0l-0.1,0c-0.4,0.1-0.9,0.1-1.6,0.1
		c-0.8,0-1.4-0.1-1.9-0.2c-0.2,0-0.3,0.1-0.5,0.1c-0.7,0.5-1.7,1-3.1,1c-1.1,0-2-0.3-2.5-0.5c-0.4,0-0.8-0.1-1.1-0.2
		c-0.5,0.2-1.2,0.3-1.9,0.3c-1.1,0-1.9-0.3-2.5-0.5c0,0,0,0,0,0c-0.9,0.6-1.9,0.9-3,0.9c-1.1,0-2-0.3-2.9-0.9c-0.5,0-1.2,0-1.7,0
		c-0.7,0.4-1.5,0.7-2.7,0.7c-1,0-1.8-0.3-2.4-0.5c-0.3,0.1-0.7,0.1-1.2,0.1c-0.8,0-1.4-0.2-2-0.3c-0.4,0.1-0.8,0.2-1.3,0.2
		c-0.5,0.2-1.1,0.4-1.9,0.4c-0.6,0.2-1.2,0.3-2.1,0.3c-0.4,0-0.6,0-0.8,0c-0.3,0-0.5,0-1.1,0c-0.8,0-1.4-0.1-1.8-0.2
		c-0.6,0-1.2-0.1-1.6-0.2c-0.5,0.2-1.2,0.4-2.1,0.4c-0.4,0-0.6,0-0.8,0c-0.3,0-0.5,0-1,0c-1.3,0-2.3-0.5-3-0.9
		c-0.6,0.3-1.5,0.6-2.5,0.6c-1,0-1.7-0.2-2.2-0.4c-0.8,0-1.4-0.2-1.9-0.4c-0.3,0.1-0.8,0.1-1.4,0.1c-0.6,0-0.9,0-1.3-0.1
		c0,0,0,0,0,0c-0.5,0.2-1.3,0.5-2.4,0.5c-0.9,0-1.7-0.2-2.3-0.5c-0.7,0.5-1.8,1.1-3.2,1.1c-1,0-1.8-0.2-2.4-0.5
		c-0.3,0-0.7,0.1-1.1,0.1c-0.6,0.2-1.2,0.3-2,0.3c-0.9,0-1.8-0.2-2.6-0.7c-0.6,0.4-1.6,0.8-2.9,0.8c-0.9,0-1.4-0.1-2-0.3
		c-1.2,0-2.1-0.4-2.7-0.8c-0.7,0.4-1.5,0.7-2.6,0.7c-1.2,0-2.1-0.3-2.7-0.7c-0.9,0.6-1.8,0.8-2.8,0.8c-0.6,0-1.2-0.1-1.6-0.3
		c-0.6,0.2-1.2,0.4-2,0.4c-1,0-1.8-0.2-2.4-0.5c-0.4,0.1-0.8,0.1-1.3,0.1c-0.6,0-1.2-0.1-1.6-0.2c-0.6,0.2-1.2,0.4-2.1,0.4
		c-0.8,0-1.5-0.2-2-0.4c-0.4,0.1-0.9,0.2-1.5,0.2c-0.5,0.1-1.1,0.3-2,0.3c-0.9,0-1.6-0.2-2.2-0.5c-0.4,0.1-0.9,0.2-1.5,0.2
		c-1,0-1.8-0.2-2.4-0.5c-0.4,0.1-0.8,0.1-1.3,0.1c-0.4,0-0.6,0-0.8,0c-0.3,0-0.5,0-1,0c-0.8,0-1.3-0.1-1.8-0.2c-0.8,0-1.1,0-1.4-0.1
		c-0.1,0-0.2,0-0.5,0c-0.3,0-0.4,0-0.6,0c-0.3,0-0.6,0.1-1.3,0.1c-0.4,0-0.7,0-1-0.1c-0.8,0.5-1.9,1.1-3.4,0.9
		c-1.3-0.2-2.5-0.9-3.2-2c-0.9-1.3-1.6-3.3,0-6.1c0-0.1,0.1-0.1,0.1-0.2c0.2-0.4,0.2-0.6,0.3-0.8l0.3-0.8c0.1-0.4,0.2-0.6,0.3-0.8
		c0.1-0.2,0.2-0.5,0.3-0.9c0.2-0.6,0.4-0.9,0.5-1.2c0.1-0.1,0.1-0.2,0.2-0.4c0.2-0.6,0.4-0.9,0.5-1.2c0.1-0.1,0.1-0.2,0.2-0.4
		c0.3-0.9,0.8-1.5,1.2-2c0.3-0.7,0.7-1.2,1.1-1.6c0,0,0,0,0,0c0.1-0.3,0.2-0.6,0.4-1.1c0.1-0.4,0.2-0.5,0.3-0.7
		c0.1-0.2,0.1-0.4,0.2-0.6c0-0.4,0-0.9,0.2-1.5c-0.1-0.7,0-1.6,0.4-2.6c0.4-0.9,0.9-1.6,1.3-2.1c0.1-0.3,0.2-0.7,0.3-1.1
		c0.1-0.5,0.2-1.1,0.4-1.9c0.2-0.5,0.4-0.9,0.7-1.3c-0.1-0.7,0-1.5,0.3-2.2c0.2-0.6,0.4-0.9,0.5-1.2c0.1-0.1,0.1-0.2,0.2-0.4
		c0.4-1,0.9-1.7,1.5-2.2c0.1-0.3,0.2-0.6,0.3-1c0.3-0.7,0.6-1.2,0.9-1.6c0-0.5,0.1-1.1,0.4-1.8c0.2-0.5,0.4-0.9,0.6-1.2
		c0-0.6,0-1.3,0.2-2c0-0.6,0.1-1.3,0.4-2.1c0.4-1.1,1.1-2,2.1-2.6c0-0.6,0.1-1.4,0.4-2.3c0.3-0.8,0.6-1.3,0.8-1.7
		c0.2-0.7,0.4-1,0.6-1.4c0,0,0,0,0-0.1c0-0.4,0.1-0.8,0.2-1.3c-0.1-0.7,0-1.6,0.4-2.6c0.3-0.9,0.8-1.6,1.3-2
		c0.1-0.4,0.2-0.8,0.4-1.2c0.2-0.6,0.5-1.1,0.8-1.4c0-0.6,0.1-1.3,0.3-2c0.2-0.7,0.6-1.2,0.9-1.6c0-0.5,0.1-1.2,0.4-1.8
		c0.4-1.1,1.1-1.8,1.6-2.3c-0.1-0.7-0.1-1.7,0.3-2.8c0.1-0.4,0.2-0.5,0.3-0.7c0.1-0.2,0.2-0.5,0.4-1c0.3-0.8,0.6-1.3,0.9-1.7l0,0
		c0.1-0.4,0.2-0.8,0.3-1.3c0-0.6,0.1-1.3,0.4-2.2c0.3-0.8,0.6-1.3,0.8-1.6c0.1-0.2,0.1-0.2,0.1-0.3c0.1-0.4,0.2-0.8,0.4-1.4
		c0.1-0.5,0.2-1,0.5-1.8c0.3-0.9,0.7-1.5,1.1-1.9c0.4-0.8,0.8-1.4,1.2-1.7c0.1-0.3,0.3-0.6,0.4-0.8c0-0.4,0.1-1,0.2-1.6
		c0-0.6,0-1.4,0.4-2.4c0.4-1,0.9-1.6,1.4-2.1c0.1-0.3,0.2-0.7,0.3-1.1c0.3-0.8,0.7-1.4,1.1-1.8c0.1-0.4,0.2-0.9,0.4-1.5
		c0.1-0.4,0.3-0.7,0.4-1c-0.1-0.7-0.1-1.6,0.3-2.6c0.3-0.8,0.7-1.4,1-1.8c0.3-0.7,0.5-1.1,0.8-1.5C359.6,30.4,359.7,30.1,359.9,29.8
		z M342.7,38.2C342.7,38.2,342.7,38.1,342.7,38.2C342.7,38.1,342.7,38.2,342.7,38.2z M227.4,127.3
		C227.4,127.3,227.4,127.3,227.4,127.3C227.4,127.3,227.4,127.3,227.4,127.3z M473.5,129.3C473.5,129.3,473.5,129.3,473.5,129.3
		C473.5,129.3,473.5,129.3,473.5,129.3z M321.3,130.7C321.3,130.7,321.3,130.7,321.3,130.7C321.3,130.7,321.3,130.7,321.3,130.7z
		 M480.2,136C480.2,136,480.2,136,480.2,136C480.2,136,480.2,136,480.2,136z M382,138.5C382,138.5,382,138.5,382,138.5
		C382,138.5,382,138.5,382,138.5C382,138.5,382,138.5,382,138.5z M16.4,201.4C16.4,201.4,16.4,201.4,16.4,201.4
		C16.4,201.4,16.4,201.4,16.4,201.4z M479.8,236.2C479.8,236.2,479.8,236.2,479.8,236.2C479.8,236.2,479.8,236.2,479.8,236.2z
		 M479.2,238C479.2,238,479.2,238,479.2,238C479.2,238,479.2,238,479.2,238L479.2,238C479.2,238,479.2,238,479.2,238z M8.5,285.1
		L8.5,285.1C8.5,285.1,8.5,285.1,8.5,285.1z M16.5,386.9C16.5,386.9,16.5,386.9,16.5,386.9C16.5,386.9,16.5,386.9,16.5,386.9z
		 M8.5,388.7L8.5,388.7C8.4,388.7,8.5,388.7,8.5,388.7z M106.9,470C106.9,470,106.9,470,106.9,470L106.9,470z M349.3,470
		C349.3,470,349.3,470,349.3,470C349.3,470,349.3,470,349.3,470z M362,478.5L362,478.5C362,478.5,362,478.5,362,478.5z M108.7,478.6
		L108.7,478.6C108.7,478.6,108.7,478.6,108.7,478.6z"/>
</g>
</svg>
