<?xml version="1.0" encoding="utf-8"?>
<!-- Generator: Adobe Illustrator 27.8.1, SVG Export Plug-In . SVG Version: 6.00 Build 0)  -->
<svg version="1.1" id="Layer_1" xmlns="http://www.w3.org/2000/svg" xmlns:xlink="http://www.w3.org/1999/xlink" x="0px" y="0px"
	 viewBox="0 0 60 60" style="enable-background:new 0 0 60 60;" xml:space="preserve">
<style type="text/css">
	.st0{fill:#FED6CE;}
</style>
<g>
	<g>
		<g>
			<path class="st0" d="M15.9,57c-3.6,0-6.7-1.3-8.9-3.9c-2.6-3-3.9-7.5-3.9-13.4L3,23.1c0,0,0,0,0,0c0-3.7,0.6-9.1,3.7-13.5
				c1.5-2.1,3.3-3.7,5.6-4.8C14.7,3.6,17.6,3,20.8,3c1.5,0,3.1,0.3,4.7,0.9c1.7,0.6,3.3,1.5,4.6,2.6c1.5,1.3,2.7,2.8,3.6,4.4
				c1,1.9,1.4,4,1.4,6.2c0,5-0.7,9-2.2,12.3c-1.2,2.7-2.9,4.8-5.4,6.9c-1.8,1.5-3,4.7-2.1,8.1c0.8,2.9,0.2,6.3-1.7,8.8
				C21.9,55.7,19.1,57,15.9,57z M6,23l0.1,16.7c0,0,0,0,0,0c0,5.1,1.1,9,3.2,11.4c0.8,1,1.9,1.7,3,2.2c1.1,0.4,2.3,0.7,3.6,0.7
				c2.8,0,4.5-1.4,5.4-2.6c1.3-1.7,1.8-4.1,1.2-6.1c-0.6-2.2-0.6-4.4,0-6.5c0.6-1.9,1.6-3.6,3-4.8c2.1-1.8,3.5-3.6,4.6-5.8
				c1.3-2.9,2-6.5,2-11.1c0-4.1-2.1-6.8-3.9-8.2C26,7.1,23.2,6,20.8,6c-5.2,0-9.1,1.8-11.6,5.3C7.8,13.4,6,17.1,6,23z"/>
		</g>
		<g>
			<path class="st0" d="M15.7,49.6c-2.2,0-4.2-0.8-5.6-2.2c-1.7-1.7-2.6-4.4-2.6-7.8c0-1.2,0.5-2.2,0.9-2.8c0.5-0.7,1.2-1.4,1.8-1.7
				l0.1-0.1c1.1-0.5,1.6-0.8,1.6-2.1c0-0.7-0.3-1-1.4-1.6c-0.4-0.2-0.8-0.5-1.2-0.8c-0.6-0.5-2-2-2-5.5c0-3.3,0.8-6.3,2.3-8.5
				c2-2.9,5.1-4.4,9-4.4c2,0,4.3,0.9,6,2.5c1,0.9,1.7,1.9,2.3,3.1c0.6,1.3,0.9,2.7,0.9,4.2c0,0.8-0.7,1.5-1.5,1.5
				c-0.8,0-1.5-0.7-1.5-1.5c0-2.5-1.2-4.1-2.2-5c-1.1-1-2.7-1.7-4-1.7c-2.9,0-5,1-6.4,3.1c-1.2,1.7-1.8,4.1-1.8,6.7
				c0,1.9,0.6,2.9,0.9,3.1c0.2,0.1,0.5,0.3,0.8,0.5c1.1,0.6,3,1.7,3,4.3c0,3.3-2.1,4.3-3.4,4.9l-0.1,0.1c-0.3,0.1-1,0.9-1,1.8
				c0,2.6,0.6,4.5,1.7,5.7c1.1,1.1,2.5,1.3,3.4,1.3c0.7,0,1.2-0.3,1.7-0.9c1.1-1.4,1.3-4,0.9-5.5c-0.2-0.8,0.3-1.6,1.1-1.9
				c0.8-0.2,1.6,0.3,1.9,1.1c0.3,1.2,0.4,2.6,0.2,4.1c-0.2,1.1-0.6,2.7-1.6,4.1C18.8,48.9,17.4,49.6,15.7,49.6z"/>
		</g>
	</g>
	<g>
		<g>
			<path class="st0" d="M39.2,37.5c-0.4,0-0.8-0.1-1.1-0.4c-0.6-0.6-0.6-1.6,0-2.2c1.3-1.3,2-2.9,2-4.7c0-1.8-0.7-3.5-2-4.7
				c-0.6-0.6-0.6-1.6,0-2.2c0.6-0.6,1.6-0.6,2.2,0c1.8,1.8,2.9,4.3,2.9,6.9c0,2.6-1,5-2.9,6.9C39.9,37.3,39.5,37.5,39.2,37.5z"/>
		</g>
		<g>
			<path class="st0" d="M43.9,42.3c-0.4,0-0.8-0.1-1.1-0.4c-0.6-0.6-0.6-1.6,0-2.2c2.5-2.5,3.9-5.9,3.9-9.5s-1.4-7-3.9-9.5
				c-0.6-0.6-0.6-1.6,0-2.2c0.6-0.6,1.6-0.6,2.2,0c1.6,1.6,2.8,3.4,3.6,5.5c0.8,2,1.2,4.1,1.2,6.2c0,2.1-0.4,4.2-1.2,6.2
				c-0.8,2.1-2.1,3.9-3.6,5.5C44.7,42.1,44.3,42.3,43.9,42.3z"/>
		</g>
		<g>
			<path class="st0" d="M49,47.3c-0.4,0-0.8-0.1-1.1-0.4c-0.6-0.6-0.6-1.6,0-2.2c2-2,3.5-4.3,4.5-6.8c1-2.5,1.5-5.1,1.5-7.8
				s-0.5-5.3-1.5-7.8c-1-2.6-2.6-4.9-4.5-6.8c-0.6-0.6-0.6-1.6,0-2.2c0.6-0.6,1.6-0.6,2.2,0c2.3,2.3,4,4.9,5.2,7.8
				c1.1,2.8,1.7,5.8,1.7,8.9c0,3.1-0.6,6.1-1.7,8.9c-1.2,2.9-2.9,5.6-5.2,7.8C49.8,47.2,49.4,47.3,49,47.3z"/>
		</g>
	</g>
</g>
</svg>
